<svg width="20" height="20" viewBox="0 0 20 20" fill="none" xmlns="http://www.w3.org/2000/svg">
<g clip-path="url(#clip0_328_7840)">
<path d="M12.0884 20C12.7571 20 13.3402 19.4168 13.3402 18.7481V15.8244H14.1761C14.6777 15.8244 15.012 15.49 15.012 14.9885V6.63818H4.98926V14.9886C4.98926 15.4901 5.32363 15.8245 5.82515 15.8245H6.66113V18.7482C6.66113 19.4169 7.24413 20 7.913 20C8.58163 20 9.16475 19.4169 9.16475 18.7482V15.8245H10.8366V18.7482C10.8365 19.4168 11.4197 20 12.0884 20Z" fill="#A6D864"/>
<path d="M17.0995 14.9886C17.7682 14.9886 18.3513 14.4055 18.3513 13.7367V7.88951C18.3513 7.22431 17.7683 6.63818 17.0995 6.63818C16.4307 6.63818 15.8477 7.22435 15.8477 7.88951V13.7367C15.8477 14.4055 16.4307 14.9886 17.0995 14.9886Z" fill="#A6D864"/>
<path d="M2.90117 14.9886C3.56995 14.9886 4.15304 14.4055 4.15304 13.7367V7.88951C4.15304 7.22431 3.57003 6.63818 2.90117 6.63818C2.23246 6.63818 1.64941 7.22435 1.64941 7.88951V13.7367C1.64945 14.4055 2.23246 14.9886 2.90117 14.9886Z" fill="#A6D864"/>
<path d="M14.0088 0.126123C13.8417 -0.0420409 13.5929 -0.0420409 13.4258 0.126123L12.3047 1.2435L12.253 1.29514C11.5882 0.962252 10.8429 0.796003 10.0129 0.794401C10.0088 0.794401 10.0048 0.794284 10.0007 0.794284H10.0006C9.99639 0.794284 9.99252 0.794401 9.98834 0.794401C9.15838 0.796003 8.41307 0.962252 7.74835 1.29514L7.69651 1.2435L6.57538 0.126123C6.40816 -0.0420409 6.15949 -0.0420409 5.99238 0.126123C5.82515 0.293348 5.82515 0.541551 5.99238 0.708659L7.07687 1.79334C6.72741 2.02666 6.41054 2.31217 6.135 2.63873C5.47531 3.42068 5.05449 4.43837 4.99664 5.54102C4.99609 5.55251 4.99496 5.56384 4.99445 5.57532C4.9909 5.6504 4.98926 5.72587 4.98926 5.80165H15.012C15.012 5.72591 15.0102 5.65044 15.0068 5.57532C15.0063 5.56384 15.0051 5.55251 15.0045 5.54102C14.9467 4.43837 14.5258 3.42064 13.8661 2.63881C13.5907 2.31225 13.2737 2.02674 12.9242 1.79342L14.0088 0.708737C14.1761 0.541551 14.1761 0.293388 14.0088 0.126123ZM7.91136 4.34216C7.56554 4.34216 7.28515 4.06181 7.28515 3.71595C7.28515 3.37009 7.5655 3.08974 7.91136 3.08974C8.25717 3.08974 8.53756 3.37009 8.53756 3.71595C8.53756 4.06181 8.25717 4.34216 7.91136 4.34216ZM12.0899 4.34216C11.744 4.34216 11.4636 4.06181 11.4636 3.71595C11.4636 3.37009 11.744 3.08974 12.0899 3.08974C12.4357 3.08974 12.7161 3.37009 12.7161 3.71595C12.7161 4.06181 12.4357 4.34216 12.0899 4.34216Z" fill="#A6D864"/>
</g>
<defs>
<clipPath id="clip0_328_7840">
<rect width="20" height="20" fill="white"/>
</clipPath>
</defs>
</svg>
