<svg width="18" height="21" viewBox="0 0 18 21" fill="none" xmlns="http://www.w3.org/2000/svg">
<path d="M8.68717 5.04388C8.46363 3.82532 9.03981 2.57128 9.73371 1.72616C10.4984 0.793685 11.8108 0.0785851 12.9323 0C13.1218 1.27758 12.6004 2.52235 11.9141 3.40282C11.1779 4.34872 9.91204 5.08223 8.68717 5.04388ZM15.2656 9.45937C15.6126 8.49117 16.3001 7.62005 17.3667 7.0323C16.2889 5.68733 14.7756 4.90648 13.3476 4.90648C11.4582 4.90648 10.6594 5.80664 9.34706 5.80664C7.9952 5.80664 6.96961 4.90648 5.33307 4.90648C3.72827 4.90648 2.02003 5.88461 0.936651 7.55512C0.538312 8.1726 0.268473 8.93971 0.12131 9.79414C-0.287037 12.191 0.322941 15.313 2.1425 18.0851C3.02719 19.4302 4.20642 20.9454 5.74695 20.9586C7.11928 20.972 7.5086 20.0812 9.36638 20.072C11.2269 20.0614 11.5795 20.9678 12.95 20.9547C14.4909 20.9417 15.7351 19.265 16.6198 17.92C17.2498 16.9548 17.488 16.4673 17.9778 15.3761C15.4871 14.4368 14.4627 11.6922 15.2656 9.45937Z" fill="white"/>
</svg>
