<svg width="42" height="18" viewBox="0 0 42 18" fill="none" xmlns="http://www.w3.org/2000/svg">
<path d="M7.93776 2.38933C8.43224 1.77081 8.76775 0.94041 8.67932 0.0917969C7.95547 0.127809 7.07216 0.569382 6.56078 1.18831C6.10157 1.71839 5.69519 2.58358 5.80117 3.39659C6.61361 3.46705 7.42547 2.99045 7.93776 2.38933Z" fill="black"/>
<path d="M8.67016 3.55525C7.49014 3.48495 6.48682 4.22495 5.92326 4.22495C5.35946 4.22495 4.49649 3.59068 3.56314 3.60775C2.34834 3.62563 1.22115 4.31248 0.604685 5.40489C-0.663272 7.59028 0.270079 10.832 1.50309 12.6118C2.10184 13.4923 2.82355 14.462 3.77437 14.4271C4.67278 14.3918 5.02494 13.8453 6.11694 13.8453C7.2082 13.8453 7.52542 14.4271 8.4764 14.4095C9.46267 14.3918 10.0792 13.5284 10.678 12.647C11.3649 11.6432 11.6461 10.674 11.6637 10.6208C11.646 10.6031 9.762 9.88035 9.74452 7.71316C9.72672 5.89855 11.2237 5.03534 11.2942 4.98185C10.4489 3.7317 9.12806 3.59068 8.67016 3.55525Z" fill="black"/>
<path d="M18.9449 1.09937C21.5097 1.09937 23.2956 2.8673 23.2956 5.44128C23.2956 8.02444 21.4729 9.80157 18.8806 9.80157H16.0409V14.3175H13.9893V1.09937H18.9449ZM16.0409 8.0794H18.395C20.1813 8.0794 21.1979 7.11767 21.1979 5.45047C21.1979 3.78343 20.1813 2.83072 18.4042 2.83072H16.0409V8.0794Z" fill="black"/>
<path d="M23.832 11.5787C23.832 9.89317 25.1236 8.8581 27.4138 8.72988L30.0518 8.57419V7.8323C30.0518 6.76056 29.3281 6.11932 28.1192 6.11932C26.9739 6.11932 26.2594 6.66885 26.0856 7.53001H24.2169C24.3268 5.78947 25.8106 4.50708 28.1924 4.50708C30.5282 4.50708 32.0212 5.7437 32.0212 7.67644V14.3175H30.125V12.7328H30.0794C29.5207 13.8047 28.3022 14.4824 27.0382 14.4824C25.1512 14.4824 23.832 13.3099 23.832 11.5787ZM30.0517 10.7086V9.94829L27.6792 10.0948C26.4976 10.1773 25.8289 10.6995 25.8289 11.5239C25.8289 12.3665 26.525 12.9162 27.5877 12.9162C28.9708 12.916 30.0517 11.9634 30.0517 10.7086Z" fill="black"/>
<path d="M33.8111 17.8624V16.2594C33.9575 16.296 34.2871 16.296 34.4521 16.296C35.3681 16.296 35.8628 15.9113 36.1649 14.922C36.1649 14.9036 36.3391 14.3357 36.3391 14.3266L32.8584 4.68091H35.0016L37.4385 12.522H37.475L39.9119 4.68091H42.0001L38.3907 14.8211C37.5667 17.1571 36.614 17.9082 34.6171 17.9082C34.4521 17.9082 33.9574 17.8898 33.8111 17.8624Z" fill="black"/>
</svg>
