<svg width="50" height="50" viewBox="0 0 50 50" fill="none" xmlns="http://www.w3.org/2000/svg">
<path d="M20.5012 2.99924L19.5015 8.7112L20.5012 14.4232L23.5012 15.9232L24.2502 16.4289L25 15.9227L25.9997 9.8359L25 2.99924L22.7506 1.99951L20.5012 2.99924Z" fill="#ECF2FF"/>
<path d="M29.4988 14.4232L30.4985 8.7112L29.4988 2.99924L27.2494 1.99951L25 2.99924V15.9227L25.7186 16.3956L26.4997 15.9228L29.4988 14.4232Z" fill="#D9E5FF"/>
<path d="M14.5029 2.99924V11.4241L20.5013 14.4232V2.99924L17.2454 1.99951L14.5029 2.99924Z" fill="#7ED8F6"/>
<path d="M29.499 14.4232L35.4974 11.4241V2.99924L32.4982 1.99951L29.499 2.99924V8.7112V14.4232Z" fill="#4895FF"/>
<path d="M11.5039 0V2.99919H25.0003L26 1.4996L25.0003 0H11.5039Z" fill="white"/>
<path d="M25 0H38.4964V2.99919H25V0Z" fill="white"/>
<path d="M19.7599 25.0555C18.5727 24.9343 17.4505 24.9161 16.8721 24.9477C16.403 24.9735 15.9998 24.9956 15.5307 25.0214C15.5049 25.4905 15.4828 25.8936 15.457 26.3627C15.425 26.9481 15.4433 28.0619 15.5647 29.2505C13.4959 30.5466 11.4816 32.2681 10.3866 33.4904C10.0732 33.8403 9.80404 34.1409 9.49072 34.4908C9.80404 34.8407 10.0732 35.1413 10.3866 35.4912C11.4782 36.7097 13.491 38.4319 15.5647 39.7311C15.4434 40.9187 15.4253 42.0407 15.457 42.6189C15.4828 43.088 15.505 43.4912 15.5307 43.9603C15.9998 43.986 16.403 44.0081 16.8721 44.0339C17.5032 44.0663 18.6022 44.0443 19.7599 43.9263C21.0557 45.9946 22.7772 48.0091 23.9996 49.1044C24.3495 49.4177 24.6501 49.6868 25 50.0001L25.9998 34.4908L25 20.3571L24.2169 19.624C22.6365 21.246 21.2839 22.6227 19.7599 25.0555Z" fill="#FFC300"/>
<path d="M25.7104 19.624L25 20.3571V50.0001C25.3499 49.6868 25.6506 49.4177 26.0004 49.1044C27.219 48.0127 28.9411 45.9999 30.2403 43.9263C31.3981 44.0444 32.4946 44.0663 33.128 44.0339C33.5971 44.0081 34.0003 43.986 34.4694 43.9603C34.4952 43.4911 34.5173 43.088 34.5431 42.6188C34.5751 42.0334 34.5568 40.9197 34.4355 39.7311C36.5041 38.435 38.5185 36.7135 39.6136 35.4912C39.9269 35.1413 40.196 34.8407 40.5093 34.4908C40.196 34.1409 39.9269 33.8403 39.6136 33.4904C38.5219 32.2718 36.5091 30.5497 34.4355 29.2505C34.5562 28.0672 34.575 26.9444 34.5431 26.3628C34.5173 25.8936 34.4951 25.4904 34.4694 25.0213C34.0004 24.9955 33.5971 24.9734 33.128 24.9476C32.5464 24.9159 31.4342 24.9334 30.2403 25.0554C29.1569 23.3261 27.81 21.661 26.5006 20.3558L25.7104 19.624Z" fill="#FFC300"/>
<path opacity="0.1" d="M25.7104 19.624L25 20.3571V50.0001C25.3499 49.6868 25.6506 49.4177 26.0004 49.1044C27.219 48.0127 28.9411 45.9999 30.2403 43.9263C31.3981 44.0444 32.4946 44.0663 33.128 44.0339C33.5971 44.0081 34.0003 43.986 34.4694 43.9603C34.4952 43.4911 34.5173 43.088 34.5431 42.6188C34.5751 42.0334 34.5568 40.9197 34.4355 39.7311C36.5041 38.435 38.5185 36.7135 39.6136 35.4912C39.9269 35.1413 40.196 34.8407 40.5093 34.4908C40.196 34.1409 39.9269 33.8403 39.6136 33.4904C38.5219 32.2718 36.5091 30.5497 34.4355 29.2505C34.5562 28.0672 34.575 26.9444 34.5431 26.3628C34.5173 25.8936 34.4951 25.4904 34.4694 25.0213C34.0004 24.9955 33.5971 24.9734 33.128 24.9476C32.5464 24.9159 31.4342 24.9334 30.2403 25.0554C29.1569 23.3261 27.81 21.661 26.5006 20.3558L25.7104 19.624Z" fill="black"/>
<path d="M23.5005 15.9227V20.357H25.0001L25.9998 18.1398L25.0001 15.9226L23.5005 15.9227Z" fill="#FDBF00"/>
<path d="M26.4996 15.9226L25 15.9227V20.357H26.4996V15.9226Z" fill="#FF9F22"/>
<path d="M24.9937 36.6104L27.1141 34.4899L29.2345 36.6104L27.1141 38.7308L24.9937 36.6104Z" fill="#FF7037"/>
<path d="M22.8795 30.2493L20.7588 32.37L22.8795 34.4907L25.0001 32.37L22.8795 30.2493Z" fill="#FF9F22"/>
<path d="M24.9941 32.3694L27.1146 30.249L29.235 32.3694L27.1146 34.4898L24.9941 32.3694Z" fill="#FF7037"/>
<path d="M22.8795 34.4907L20.7588 36.6115L22.8795 38.7322L25.0001 36.6115L23.9398 35.5511L22.8795 34.4907Z" fill="#FF9F22"/>
</svg>
