<svg width="18" height="18" viewBox="0 0 18 18" fill="none" xmlns="http://www.w3.org/2000/svg">
<g clip-path="url(#clip0_240_2086)">
<path d="M7 11C7 11.5304 7.21071 12.0391 7.58579 12.4142C7.96086 12.7893 8.46957 13 9 13C9.53043 13 10.0391 12.7893 10.4142 12.4142C10.7893 12.0391 11 11.5304 11 11C11 10.4696 10.7893 9.96086 10.4142 9.58579C10.0391 9.21071 9.53043 9 9 9C8.46957 9 7.96086 9.21071 7.58579 9.58579C7.21071 9.96086 7 10.4696 7 11Z" stroke="#78716C" stroke-width="1.5" stroke-linecap="round" stroke-linejoin="round"/>
<path d="M2.77804 5H15.222C15.4783 4.99997 15.7316 5.0571 15.9645 5.16748C16.1974 5.27785 16.4045 5.43886 16.5714 5.63947C16.7383 5.84008 16.8612 6.07554 16.9316 6.3297C17.002 6.58387 17.0183 6.85073 16.9793 7.112L15.8638 13.668C15.7669 14.3174 15.4478 14.9096 14.9642 15.3374C14.4805 15.7651 13.8644 16.0002 13.2272 16H4.77188C4.13488 16 3.51893 15.7648 3.0355 15.3371C2.55206 14.9093 2.23307 14.3173 2.13625 13.668L1.02066 7.112C0.981695 6.85073 0.99798 6.58387 1.0684 6.3297C1.13881 6.07554 1.2617 5.84008 1.42862 5.63947C1.59555 5.43886 1.80256 5.27785 2.03548 5.16748C2.2684 5.0571 2.52171 4.99997 2.77804 5Z" stroke="#78716C" stroke-width="1.5" stroke-linecap="round" stroke-linejoin="round"/>
<path d="M13 7L12 2" stroke="#78716C" stroke-width="1.5" stroke-linecap="round" stroke-linejoin="round"/>
<path d="M5 7L6 2" stroke="#78716C" stroke-width="1.5" stroke-linecap="round" stroke-linejoin="round"/>
</g>
<defs>
<clipPath id="clip0_240_2086">
<rect width="18" height="18" fill="white"/>
</clipPath>
</defs>
</svg>
