<svg width="78" height="78" viewBox="0 0 78 78" fill="none" xmlns="http://www.w3.org/2000/svg">
<rect x="0.175" y="0.175" width="77.65" height="77.65" rx="16.825" stroke="#CED5DC" stroke-width="0.35"/>
<path fill-rule="evenodd" clip-rule="evenodd" d="M45.5 40.5C45.5 43.9518 42.7018 46.75 39.25 46.75C35.7982 46.75 33 43.9518 33 40.5C33 37.0482 35.7982 34.25 39.25 34.25C42.7018 34.25 45.5 37.0482 45.5 40.5ZM44 40.5C44 43.1234 41.8734 45.25 39.25 45.25C36.6266 45.25 34.5 43.1234 34.5 40.5C34.5 37.8766 36.6266 35.75 39.25 35.75C41.8734 35.75 44 37.8766 44 40.5Z" fill="#4C9EEB"/>
<path fill-rule="evenodd" clip-rule="evenodd" d="M39 26C42.1804 26 44.9828 27.6186 46.6284 30.0769H50.2115C51.3373 30.0769 52.25 30.9896 52.25 32.1154V50.4615C52.25 51.5873 51.3373 52.5 50.2115 52.5H27.7885C26.6627 52.5 25.75 51.5873 25.75 50.4615V32.1154C25.75 30.9896 26.6627 30.0769 27.7885 30.0769H31.3716C33.0172 27.6186 35.8196 26 39 26ZM32.1726 31.5769L32.6181 30.9113C33.9971 28.8512 36.3411 27.5 39 27.5C41.6589 27.5 44.0029 28.8512 45.3819 30.9113L45.8274 31.5769H50.2115C50.5089 31.5769 50.75 31.818 50.75 32.1154V50.4615C50.75 50.7589 50.5089 51 50.2115 51H27.7885C27.4911 51 27.25 50.7589 27.25 50.4615V32.1154C27.25 31.818 27.4911 31.5769 27.7885 31.5769H32.1726Z" fill="#4C9EEB"/>
</svg>
