<svg width="20" height="21" viewBox="0 0 20 21" fill="none" xmlns="http://www.w3.org/2000/svg">
<g clip-path="url(#clip0_8_356)">
<path d="M18.7506 1.75011C13.5376 -0.998284 8.13539 1.16051 4.6875 4.6084C1.54723 7.74926 0.392461 13.8338 2.19848 16.8819L0 19.0804L1.42027 20.5001L3.61875 18.3022C6.66684 20.1076 12.7514 18.9534 15.8917 15.8132C19.3402 12.3653 21.499 6.9625 18.7506 1.75011ZM16.4722 9.38375L12.2669 9.28547L9.07777 12.4746L13.8837 12.6302L13.8355 14.117L7.63551 13.9175L5.12816 16.4242L4.07652 15.3725L6.58324 12.8652L6.38367 6.66523L7.87051 6.61703L8.02555 11.4229L11.2146 8.23383L11.117 4.02851L12.6044 3.99433L12.6691 6.77937L15.437 4.01144L16.4893 5.06308L13.7214 7.83164L16.507 7.89633L16.4722 9.38375Z" fill="#003566"/>
</g>
<defs>
<clipPath id="clip0_8_356">
<rect width="20" height="20" fill="white" transform="translate(0 0.5)"/>
</clipPath>
</defs>
</svg>
