<svg width="40" height="40" viewBox="0 0 40 40" fill="none" xmlns="http://www.w3.org/2000/svg">
<path d="M28.1148 27.6501C26.1007 27.6501 24.4399 29.2756 24.4399 31.325C24.4399 33.3391 26.0654 34.9999 28.1148 34.9999C30.1289 34.9999 31.7897 33.3745 31.7897 31.325C31.7544 29.3109 30.1289 27.6501 28.1148 27.6501Z" fill="#FEC20E"/>
<path d="M34.5814 10.1236C34.5107 10.1236 34.4047 10.0883 34.2987 10.0883H12.0375L11.6841 7.72082C11.4721 6.16607 10.1293 5 8.53925 5H5.67709C4.89971 5 4.26367 5.63604 4.26367 6.41341C4.26367 7.19079 4.89971 7.82683 5.67709 7.82683H8.53925C8.71593 7.82683 8.85727 7.96817 8.8926 8.14485L11.0834 23.0564C11.3661 24.9291 12.9915 26.3426 14.8996 26.3426H29.5991C31.4366 26.3426 33.0267 25.0351 33.4153 23.233L35.7121 11.7491C35.8535 11.007 35.3588 10.265 34.5814 10.1236Z" fill="#003566"/>
<path d="M19.1046 31.1483C19.0339 29.2049 17.4085 27.6501 15.4651 27.6501C13.4156 27.7562 11.8608 29.4522 11.9315 31.4664C12.0022 33.4098 13.5923 34.9646 15.5357 34.9646H15.6064C17.6205 34.8586 19.2106 33.1625 19.1046 31.1483Z" fill="#FEC20E"/>
</svg>
