<svg width="40" height="40" viewBox="0 0 40 40" fill="none" xmlns="http://www.w3.org/2000/svg">
<path d="M36.6997 29.9999C36.6997 30.9166 35.9497 31.6666 35.033 31.6666C35.0163 31.6666 35.0163 31.6666 34.9997 31.6666H31.6663V34.9999C31.6663 35.6666 31.2663 36.2833 30.633 36.5333C30.433 36.6333 30.2163 36.6666 29.9997 36.6666C29.5663 36.6666 29.133 36.4999 28.8163 36.1832L19.9997 27.3666L11.183 36.1832C10.8663 36.4999 10.433 36.6666 9.99967 36.6666C9.78301 36.6666 9.56634 36.6333 9.36634 36.5333C8.73301 36.2833 8.33301 35.6666 8.33301 34.9999V31.6666H4.99967C4.08301 31.6666 3.33301 30.9166 3.33301 29.9999C3.33301 29.0833 3.33301 29.0333 11.7163 20.8333C12.383 20.1833 13.433 20.1999 14.0663 20.8499C15.6497 22.4499 17.7497 23.3333 19.9997 23.3333C22.2497 23.3333 24.3497 22.4499 25.933 20.8499C26.5663 20.1999 27.633 20.1833 28.283 20.8333C33.3497 25.7833 35.3498 27.7666 36.1497 28.7666C36.483 29.0666 36.6997 29.4999 36.6997 29.9999Z" fill="#003566"/>
<path d="M31.6663 14.9999C31.6663 18.0832 30.4663 20.9999 28.2997 23.1832C26.0997 25.4332 23.1497 26.6666 19.9997 26.6666C16.8497 26.6666 13.8997 25.4332 11.6997 23.1832C9.53301 20.9999 8.33301 18.0832 8.33301 14.9999C8.33301 8.56658 13.5663 3.33325 19.9997 3.33325C26.433 3.33325 31.6663 8.56658 31.6663 14.9999Z" fill="#FEC20E"/>
</svg>
