<svg width="22" height="22" viewBox="0 0 22 22" fill="none" xmlns="http://www.w3.org/2000/svg">
<path fill-rule="evenodd" clip-rule="evenodd" d="M11 22C4.93514 22 0 17.0649 0 11C0 4.93514 4.93514 0 11 0C17.0649 0 22 4.93514 22 11C22 17.0649 17.0649 22 11 22Z" fill="#FFC300"/>
<path fill-rule="evenodd" clip-rule="evenodd" d="M13.8555 15.7903C13.8098 15.7903 13.7641 15.7903 13.7184 15.7598L10.992 14.7088L8.28079 15.7598C8.15894 15.8207 8.00662 15.7903 7.9 15.7141C7.79338 15.638 7.73246 15.5161 7.74769 15.379L7.91524 12.4698L6.057 10.2156C5.98085 10.109 5.95038 9.97187 5.99608 9.83479C6.04177 9.71294 6.13316 9.60632 6.27024 9.57586L9.08805 8.84475L10.6721 6.37726C10.733 6.27064 10.8701 6.20972 10.992 6.20972C11.1291 6.20972 11.2509 6.27064 11.3271 6.37726L12.9111 8.84475L15.7289 9.57586C15.8508 9.60632 15.9574 9.71294 16.0031 9.83479C16.0488 9.97187 16.0183 10.109 15.927 10.2156L14.084 12.4698L14.2515 15.379C14.2515 15.5161 14.1906 15.638 14.084 15.7141C14.023 15.775 13.9316 15.7903 13.8555 15.7903Z" fill="white"/>
</svg>
