<svg width="24" height="24" viewBox="0 0 24 24" fill="none" xmlns="http://www.w3.org/2000/svg">
<g clip-path="url(#clip0_368_10373)">
<path d="M18 4.00012C18.7956 4.00012 19.5587 4.31619 20.1213 4.8788C20.6839 5.44141 21 6.20447 21 7.00012V15.0001C21 15.7958 20.6839 16.5588 20.1213 17.1214C19.5587 17.6841 18.7956 18.0001 18 18.0001H13L8 21.0001V18.0001H6C5.20435 18.0001 4.44129 17.6841 3.87868 17.1214C3.31607 16.5588 3 15.7958 3 15.0001V7.00012C3 6.20447 3.31607 5.44141 3.87868 4.8788C4.44129 4.31619 5.20435 4.00012 6 4.00012H18Z" stroke="white" stroke-width="1.5" stroke-linecap="round" stroke-linejoin="round"/>
<path d="M9.5 9.00012H9.51" stroke="white" stroke-width="1.5" stroke-linecap="round" stroke-linejoin="round"/>
<path d="M14.5 9.00012H14.51" stroke="white" stroke-width="1.5" stroke-linecap="round" stroke-linejoin="round"/>
<path d="M9.5 13.0001C9.82588 13.3327 10.2148 13.5969 10.6441 13.7773C11.0734 13.9577 11.5344 14.0506 12 14.0506C12.4656 14.0506 12.9266 13.9577 13.3559 13.7773C13.7852 13.5969 14.1741 13.3327 14.5 13.0001" stroke="white" stroke-width="1.5" stroke-linecap="round" stroke-linejoin="round"/>
</g>
<defs>
<clipPath id="clip0_368_10373">
<rect width="24" height="24" fill="white"/>
</clipPath>
</defs>
</svg>
