<svg width="37" height="27" viewBox="0 0 37 27" fill="none" xmlns="http://www.w3.org/2000/svg">
<path d="M34.1094 0.203125H2.89062C1.29681 0.203125 0 1.49993 0 3.09375V23.9062C0 25.5001 1.29681 26.7969 2.89062 26.7969H34.1094C35.7032 26.7969 37 25.5001 37 23.9062V3.09375C37 1.49993 35.7032 0.203125 34.1094 0.203125Z" fill="#5D647F"/>
<path d="M12.7188 11.7656H5.78125C5.14264 11.7656 4.625 11.248 4.625 10.6094V5.98438C4.625 5.34576 5.14264 4.82812 5.78125 4.82812H12.7188C13.3574 4.82812 13.875 5.34576 13.875 5.98438V10.6094C13.875 11.248 13.3574 11.7656 12.7188 11.7656Z" fill="#FFD100"/>
<path d="M8.67188 19.2812H5.78125C5.14264 19.2812 4.625 18.7636 4.625 18.125V17.5469C4.625 16.9083 5.14264 16.3906 5.78125 16.3906H8.67188C9.31049 16.3906 9.82812 16.9083 9.82812 17.5469V18.125C9.82812 18.7636 9.31049 19.2812 8.67188 19.2812Z" fill="#B8BAC0"/>
<path d="M16.1875 19.2812H13.2969C12.6583 19.2812 12.1406 18.7636 12.1406 18.125V17.5469C12.1406 16.9083 12.6583 16.3906 13.2969 16.3906H16.1875C16.8261 16.3906 17.3438 16.9083 17.3438 17.5469V18.125C17.3438 18.7636 16.8261 19.2812 16.1875 19.2812Z" fill="#B8BAC0"/>
<path d="M23.7031 19.2812H20.8125C20.1739 19.2812 19.6562 18.7636 19.6562 18.125V17.5469C19.6562 16.9083 20.1739 16.3906 20.8125 16.3906H23.7031C24.3417 16.3906 24.8594 16.9083 24.8594 17.5469V18.125C24.8594 18.7636 24.3417 19.2812 23.7031 19.2812Z" fill="#B8BAC0"/>
<path d="M31.2188 19.2812H28.3281C27.6895 19.2812 27.1719 18.7636 27.1719 18.125V17.5469C27.1719 16.9083 27.6895 16.3906 28.3281 16.3906H31.2188C31.8574 16.3906 32.375 16.9083 32.375 17.5469V18.125C32.375 18.7636 31.8574 19.2812 31.2188 19.2812Z" fill="#B8BAC0"/>
<path d="M16.7656 22.75H5.20312C4.88357 22.75 4.625 22.4911 4.625 22.1719C4.625 21.8526 4.88357 21.5938 5.20312 21.5938H16.7656C17.0852 21.5938 17.3438 21.8526 17.3438 22.1719C17.3438 22.4911 17.0852 22.75 16.7656 22.75Z" fill="#8A8895"/>
<path d="M24.2812 22.75H19.0781C18.7586 22.75 18.5 22.4911 18.5 22.1719C18.5 21.8526 18.7586 21.5938 19.0781 21.5938H24.2812C24.6008 21.5938 24.8594 21.8526 24.8594 22.1719C24.8594 22.4911 24.6008 22.75 24.2812 22.75Z" fill="#8A8895"/>
<path d="M13.875 8.875H8.09375V7.71875H13.875V6.5625H8.09375V4.82812H6.9375V11.7656H8.09375V10.0312H13.875V8.875Z" fill="#FF9500"/>
<path d="M28.9062 11.7656C30.822 11.7656 32.375 10.2126 32.375 8.29688C32.375 6.38114 30.822 4.82812 28.9062 4.82812C26.9905 4.82812 25.4375 6.38114 25.4375 8.29688C25.4375 10.2126 26.9905 11.7656 28.9062 11.7656Z" fill="#FF4F19"/>
</svg>
