<svg width="30" height="30" viewBox="0 0 30 30" fill="none" xmlns="http://www.w3.org/2000/svg">
<path d="M17.516 17.0613C17.7135 19.2863 15.966 21.1538 13.781 21.1538H8.78111C7.92988 21.1538 7.32738 20.3338 7.57988 19.5201C8.20362 17.5101 9.99984 14.2938 12.891 13.7376C15.0848 13.3151 17.3185 14.8363 17.516 17.0613ZM29.1183 0.883902C27.9421 -0.293592 26.0346 -0.294842 24.8571 0.881402C24.8259 0.912652 18.2622 8.14886 15.2423 11.4801C16.0585 11.6938 16.8372 12.0601 17.5247 12.5788C18.3897 13.2313 19.031 14.0976 19.4547 15.0563L29.1145 5.15138C30.2933 3.97389 30.2958 2.06265 29.1183 0.883902ZM19.9872 18.0888C19.8409 19.3976 19.2909 20.6413 18.3922 21.6225C17.211 22.9138 15.5298 23.6538 13.7823 23.6538H8.78236C7.59113 23.6538 6.4599 23.0825 5.75491 22.125C5.04992 21.1663 4.83992 19.9151 5.19367 18.7776C6.07865 15.9238 8.36362 12.4013 11.9073 11.4351L15.4898 7.48512C16.8535 5.98263 17.9622 4.75888 18.8785 3.75014H6.2499C2.80371 3.75014 0 6.55387 0 10.0001V23.75C0 27.1963 2.80371 30 6.2499 30H19.9997C23.4459 30 26.2496 27.1963 26.2496 23.75V11.6676L19.9872 18.0888Z" fill="#003566"/>
</svg>
