<svg width="40" height="40" viewBox="0 0 40 40" fill="none" xmlns="http://www.w3.org/2000/svg">
<g clip-path="url(#clip0_127_2555)">
<path d="M20.6899 6.66721H19.3108C18.5491 6.66721 17.9316 6.04979 17.9316 5.28807C17.9316 4.52636 18.5491 3.90894 19.3108 3.90894H20.6899C21.4516 3.90894 22.0691 4.52636 22.0691 5.28807C22.0691 6.04979 21.4516 6.66721 20.6899 6.66721Z" fill="#FEC20E"/>
<path d="M21.3788 5.97778H18.6204C9.09928 5.97778 1.38086 13.6962 1.38086 23.2174V28.0445H38.6183V23.2174C38.6183 13.6962 30.8999 5.97778 21.3788 5.97778Z" fill="#003566"/>
<path d="M0.140087 32.0781C-0.529131 34.253 1.29672 36.3965 3.54656 36.055C8.16546 35.354 13.8501 34.9403 20 34.9403C26.1499 34.9403 31.8345 35.3541 36.4534 36.055C38.7032 36.3964 40.5291 34.2531 39.8598 32.0781L38.6187 28.0443C34.1435 26.7794 27.4653 25.9756 20 25.9756C12.5346 25.9756 5.85648 26.7794 1.38126 28.0443L0.140087 32.0781Z" fill="#FEC20E"/>
<path d="M20.9197 5.97778H19.0809C12.7335 5.97778 7.58789 13.6962 7.58789 23.2174V27.3549H32.4128V23.2174C32.4128 13.6962 27.2673 5.97778 20.9197 5.97778Z" fill="#003566"/>
<path d="M22.0684 22.5278H17.9309C17.1692 22.5278 16.5518 21.9104 16.5518 21.1487C16.5518 20.387 17.1692 19.7695 17.9309 19.7695H22.0684C22.8301 19.7695 23.4475 20.387 23.4475 21.1487C23.4476 21.9104 22.8301 22.5278 22.0684 22.5278Z" fill="#FEC20E"/>
<path d="M19.9997 32.1818C26.0946 32.1818 31.9272 32.5781 36.8671 33.3278C36.8881 33.331 36.9081 33.3327 36.9266 33.3327C37.052 33.3327 37.1342 33.2468 37.1719 33.1957C37.2747 33.0566 37.2373 32.9351 37.2232 32.8893L35.3751 27.2857C31.1787 26.4679 25.8323 25.9756 19.9997 25.9756C14.167 25.9756 8.82065 26.4678 4.62425 27.2857L2.77621 32.8893C2.76207 32.9351 2.72465 33.0567 2.82738 33.1958C2.86512 33.2469 2.9473 33.3327 3.07277 33.3327C3.09129 33.3327 3.11129 33.331 3.1323 33.3278C8.07222 32.5781 13.9049 32.1818 19.9997 32.1818Z" fill="#FEC20E"/>
</g>
<defs>
<clipPath id="clip0_127_2555">
<rect width="40" height="40" fill="white"/>
</clipPath>
</defs>
</svg>
