<svg width="20" height="20" viewBox="0 0 20 20" fill="none" xmlns="http://www.w3.org/2000/svg">
<g clip-path="url(#clip0_206_6406)">
<path d="M3.33325 16.6668H6.66659L15.4166 7.91676C15.6355 7.69789 15.8091 7.43805 15.9275 7.15208C16.046 6.86612 16.1069 6.55962 16.1069 6.25009C16.1069 5.94056 16.046 5.63406 15.9275 5.3481C15.8091 5.06213 15.6355 4.80229 15.4166 4.58342C15.1977 4.36455 14.9379 4.19094 14.6519 4.07248C14.3659 3.95403 14.0594 3.89307 13.7499 3.89307C13.4404 3.89307 13.1339 3.95403 12.8479 4.07248C12.562 4.19094 12.3021 4.36455 12.0833 4.58342L3.33325 13.3334V16.6668Z" stroke="black" stroke-width="1.5" stroke-linecap="round" stroke-linejoin="round"/>
<path d="M11.25 5.41675L14.5833 8.75008" stroke="black" stroke-width="1.5" stroke-linecap="round" stroke-linejoin="round"/>
</g>
<defs>
<clipPath id="clip0_206_6406">
<rect width="20" height="20" fill="white"/>
</clipPath>
</defs>
</svg>
