<svg width="24" height="25" viewBox="0 0 24 25" fill="none" xmlns="http://www.w3.org/2000/svg">
<path d="M18.6996 11.714C19.4366 12.7271 19.879 13.9243 19.9778 15.1732C20.0767 16.4221 19.8281 17.674 19.2597 18.7904C18.6912 19.9068 17.825 20.8442 16.7569 21.4989C15.6888 22.1536 14.4604 22.5001 13.2076 22.5H10.7916C9.53882 22.5001 8.31042 22.1536 7.24231 21.4989C6.17419 20.8442 5.308 19.9068 4.73955 18.7904C4.17109 17.674 3.92254 16.4221 4.02139 15.1732C4.12024 13.9243 4.56262 12.7271 5.29962 11.714L11.9996 2.5L18.6996 11.714ZM12.7536 19.75C13.7051 19.7509 14.6389 19.4927 15.4547 19.0031C16.2706 18.5135 16.9377 17.811 17.3846 16.971C17.5095 16.7368 17.5363 16.4626 17.459 16.2087C17.3818 15.9547 17.2068 15.7419 16.9726 15.617C16.7384 15.4921 16.4642 15.4653 16.2103 15.5426C15.9564 15.6198 15.7435 15.7948 15.6186 16.029C15.3426 16.5492 14.93 16.9843 14.4252 17.2876C13.9204 17.5908 13.3425 17.7507 12.7536 17.75C12.4884 17.75 12.234 17.8554 12.0465 18.0429C11.859 18.2304 11.7536 18.4848 11.7536 18.75C11.7536 19.0152 11.859 19.2696 12.0465 19.4571C12.234 19.6446 12.4884 19.75 12.7536 19.75Z" fill="#EAB308"/>
</svg>
