<svg width="40" height="54" viewBox="0 0 40 54" fill="none" xmlns="http://www.w3.org/2000/svg">
<path fill-rule="evenodd" clip-rule="evenodd" d="M39.3327 19.75C39.3327 29.6107 31.9505 37.7471 22.4114 38.9342C22.4146 38.9835 22.416 39.0333 22.416 39.0833V43.9166H24.8327C26.1674 43.9166 27.2494 44.9986 27.2494 46.3333C27.2494 47.668 26.1674 48.75 24.8327 48.75H22.416V51.1666C22.416 52.5014 21.3341 53.5833 19.9994 53.5833C18.6646 53.5833 17.5827 52.5014 17.5827 51.1666V48.75H15.166C13.8313 48.75 12.7494 47.668 12.7494 46.3333C12.7494 44.9986 13.8313 43.9166 15.166 43.9166H17.5827V39.0833C17.5827 39.0333 17.5841 38.9835 17.5873 38.9342C8.04811 37.7471 0.666016 29.6107 0.666016 19.75C0.666016 9.07245 9.32184 0.416626 19.9994 0.416626C30.6769 0.416626 39.3327 9.07245 39.3327 19.75ZM5.50817 19.75C5.50817 27.7532 11.9961 34.241 19.9994 34.241C28.0026 34.241 34.4904 27.7532 34.4904 19.75C34.4904 11.7467 28.0026 5.25878 19.9994 5.25878C11.9961 5.25878 5.50817 11.7467 5.50817 19.75Z" fill="white"/>
</svg>
