<svg width="151" height="168" viewBox="0 0 151 168" fill="none" xmlns="http://www.w3.org/2000/svg">
    <path d="M83.5329 7.66212L83.5365 7.66422L137.458 38.8548C137.46 38.856 137.462 38.8572 137.465 38.8584C142.429 41.7524 145.5 47.0662 145.5 52.8014L145.5 115.199C145.5 120.941 142.456 126.252 137.463 129.175C137.459 129.178 137.455 129.18 137.451 129.182L83.5387 160.335L83.5329 160.338C78.5578 163.221 72.4422 163.221 67.4671 160.338L67.4635 160.336L13.5417 129.145C13.5392 129.144 13.5367 129.142 13.5342 129.141C8.57022 126.247 5.49999 120.933 5.49999 115.199L5.5 52.8014C5.5 47.051 8.55092 41.7468 13.5316 38.8607L67.4635 7.66423L67.4671 7.66212C72.4422 4.77929 78.5578 4.77929 83.5329 7.66212Z" fill="black" stroke="white" stroke-width="11"/>
    <path d="M142 111.484L142 56.5155C142 49.7239 138.366 43.4524 132.51 40.0422L85.0041 12.5577C79.1199 9.14743 71.8801 9.14743 65.9959 12.5577L18.4897 40.0422C12.6055 43.4524 9 49.7239 9 56.5155L9 111.484C9 118.276 12.6343 124.548 18.4897 127.958L65.9959 155.442C71.8801 158.853 79.1199 158.853 85.0041 155.442L132.51 127.987C138.394 124.548 142 118.276 142 111.484Z" fill="#FFC300"/>
    <mask id="mask0_242_5537" style="mask-type:alpha" maskUnits="userSpaceOnUse" x="9" y="10" width="133" height="148">
        <path d="M142 111.484L142 56.5155C142 49.7239 138.366 43.4524 132.51 40.0422L85.0041 12.5577C79.1199 9.14743 71.8801 9.14743 65.9959 12.5577L18.4897 40.0422C12.6055 43.4524 9 49.7239 9 56.5155L9 111.484C9 118.276 12.6343 124.548 18.4897 127.958L65.9959 155.442C71.8801 158.853 79.1199 158.853 85.0041 155.442L132.51 127.987C138.394 124.548 142 118.276 142 111.484Z" fill="#FFC300"/>
    </mask>
    <g mask="url(#mask0_242_5537)">
        <rect x="69" y="-5" width="14" height="186" fill="#FFDB66"/>
        <rect x="153.366" y="35.3779" width="13.7778" height="186.624" transform="rotate(60 153.366 35.3779)" fill="#FFDB66"/>
        <rect x="189.757" y="145.723" width="13.7778" height="254.756" transform="rotate(120 189.757 145.723)" fill="#FFDB66"/>
        <rect x="162" y="81" width="14" height="172" transform="rotate(90 162 81)" fill="#FFDB66"/>
        <rect x="115.532" y="5.75122" width="13.7778" height="181.991" transform="rotate(30 115.532 5.75122)" fill="#FFDB66"/>
        <rect x="19.3623" y="3.67871" width="13.7778" height="202.686" transform="rotate(-30 19.3623 3.67871)" fill="#FFDB66"/>
    </g>
    <mask id="mask1_242_5537" style="mask-type:alpha" maskUnits="userSpaceOnUse" x="9" y="10" width="133" height="148">
        <path d="M142 111.484L142 56.5155C142 49.7239 138.366 43.4524 132.51 40.0422L85.0041 12.5577C79.1199 9.14743 71.8801 9.14743 65.9959 12.5577L18.4897 40.0422C12.6055 43.4524 9 49.7239 9 56.5155L9 111.484C9 118.276 12.6343 124.548 18.4897 127.958L65.9959 155.442C71.8801 158.853 79.1199 158.853 85.0041 155.442L132.51 127.987C138.394 124.548 142 118.276 142 111.484Z" fill="black"/>
    </mask>
    <g mask="url(#mask1_242_5537)">
        <path d="M124.289 114.539C125.771 141.547 102.968 163.782 75.9187 164.115C48.8695 164.448 26.6797 142.791 26.3466 115.746C26.3466 115.746 25.5846 92.3444 31.5007 81.7352C31.5007 81.7352 33.3648 92.769 41.5354 96.8161C49.7059 100.863 51.9907 104.117 51.9907 104.117C51.9907 104.117 34.4813 71.1584 72.8056 40.6232C72.8056 40.6232 69.1934 56.043 77.3873 61.9889C85.5812 67.9348 88.6444 78.2625 87.8739 85.7013C87.8739 85.7013 95.921 79.7263 93.6773 65.936C93.6773 65.936 104.992 72.7056 104.904 107.78C104.904 107.78 117.501 106.762 112.922 85.5676C112.922 85.5676 123.121 93.2171 124.289 114.539Z" fill="#EF5821"/>
        <path d="M47.3237 134.935C47.3237 134.935 49.9422 165.706 78.5223 164.306C78.5223 164.306 102.633 163.658 103.86 137.216C103.86 137.216 90.1323 148.275 90.0507 130.911C90.034 127.822 90.8457 124.8 92.1636 122.014C93.6727 118.815 95.4496 113.12 94.1696 105.478C94.1696 105.478 90.9515 120.573 82.8938 113.318C78.0755 108.979 76.1644 105.162 77.928 87.6499C77.928 87.6499 72.2074 92.8255 70.8004 104.652C70.5336 106.892 69.0095 108.869 66.8489 109.386C64.7223 109.893 62.0838 109.02 60.0366 103.502C60.0366 103.502 55.6398 110.178 62.726 126.182C62.726 126.182 64.7144 133.845 58.5518 137.072C52.3892 140.298 47.3237 134.935 47.3237 134.935Z" fill="#F7921E"/>
        <path d="M60.943 148.352C60.943 148.352 62.3222 165.088 77.2925 164.333C77.2925 164.333 89.9217 163.987 90.5579 149.606C90.5579 149.606 83.37 155.618 83.323 146.174C83.3135 144.494 83.7379 142.851 84.4276 141.336C85.2172 139.596 86.1466 136.5 85.4742 132.343C85.4742 132.343 83.7923 140.552 79.5697 136.604C77.0448 134.243 76.0428 132.167 76.9623 122.643C76.9623 122.643 73.9671 125.457 73.2329 131.888C73.0938 133.106 72.2959 134.181 71.1643 134.462C70.0505 134.737 68.6682 134.261 67.5945 131.26C67.5945 131.26 65.293 134.89 69.0088 143.595C69.0088 143.595 70.0522 147.764 66.825 149.517C63.5977 151.27 60.943 148.352 60.943 148.352Z" fill="#FDEE23"/>
    </g>
</svg>
