<svg width="40" height="40" viewBox="0 0 40 40" fill="none" xmlns="http://www.w3.org/2000/svg">
<path d="M29.2148 12.9499C29.0981 12.9333 28.9814 12.9333 28.8648 12.9499C26.2814 12.8666 24.2314 10.7499 24.2314 8.14992C24.2314 5.49992 26.3814 3.33325 29.0481 3.33325C31.6981 3.33325 33.8648 5.48325 33.8648 8.14992C33.8481 10.7499 31.7981 12.8666 29.2148 12.9499Z" fill="#FEC20E"/>
<path d="M34.6493 24.4998C32.7827 25.7498 30.166 26.2165 27.7493 25.8998C28.3827 24.5331 28.716 23.0165 28.7327 21.4165C28.7327 19.7498 28.366 18.1665 27.666 16.7831C30.1327 16.4498 32.7493 16.9165 34.6327 18.1665C37.266 19.8998 37.266 22.7498 34.6493 24.4998Z" fill="#FEC20E"/>
<path d="M10.734 12.95C10.8507 12.9334 10.9673 12.9334 11.084 12.95C13.6673 12.8667 15.7173 10.75 15.7173 8.15004C15.7173 5.50004 13.5673 3.33337 10.9007 3.33337C8.25065 3.33337 6.08398 5.48337 6.08398 8.15004C6.10065 10.75 8.15065 12.8667 10.734 12.95Z" fill="#FEC20E"/>
<path d="M10.9149 21.4169C10.9149 23.0336 11.2649 24.5669 11.8982 25.9503C9.54824 26.2003 7.09824 25.7003 5.29824 24.5169C2.66491 22.7669 2.66491 19.9169 5.29824 18.1669C7.08158 16.9669 9.59824 16.4836 11.9649 16.7503C11.2816 18.1503 10.9149 19.7336 10.9149 21.4169Z" fill="#FEC20E"/>
<path d="M20.201 26.45C20.0677 26.4333 19.9177 26.4333 19.7677 26.45C16.701 26.35 14.251 23.8333 14.251 20.7333C14.251 17.5667 16.801 15 19.9843 15C23.151 15 25.7177 17.5667 25.7177 20.7333C25.7177 23.8333 23.2843 26.35 20.201 26.45Z" fill="#003566"/>
<path d="M14.785 29.8999C12.2683 31.5832 12.2683 34.3499 14.785 36.0166C17.6517 37.9332 22.3517 37.9332 25.2183 36.0166C27.735 34.3332 27.735 31.5666 25.2183 29.8999C22.3683 27.9832 17.6683 27.9832 14.785 29.8999Z" fill="#003566"/>
</svg>
