<svg width="56" height="23" viewBox="0 0 56 23" fill="none" xmlns="http://www.w3.org/2000/svg">
<path d="M26.1369 11.1977V17.7284H24.0811V1.60156H29.5311C30.9124 1.60156 32.0901 2.06577 33.0539 2.99407C34.039 3.92237 34.5315 5.05577 34.5315 6.39425C34.5315 7.76514 34.039 8.89853 33.0539 9.81603C32.1009 10.7335 30.9231 11.1869 29.5311 11.1869H26.1369V11.1977ZM26.1369 3.58773V9.21157H29.574C30.3877 9.21157 31.0731 8.93095 31.6084 8.38041C32.1545 7.82986 32.4328 7.16068 32.4328 6.40505C32.4328 5.66022 32.1545 5.00174 31.6084 4.4513C31.073 3.87915 30.3984 3.59853 29.574 3.59853H26.1369V3.58773Z" fill="#383E41"/>
<path d="M39.9074 6.32935C41.4278 6.32935 42.6271 6.73952 43.505 7.55988C44.3831 8.38023 44.822 9.50282 44.822 10.9277V17.7282H42.8626V16.1954H42.7769C41.931 17.4584 40.796 18.0845 39.3827 18.0845C38.1728 18.0845 37.1662 17.7282 36.3525 17.005C35.5387 16.2818 35.1318 15.3858 35.1318 14.3064C35.1318 13.1622 35.5601 12.2555 36.4168 11.5862C37.2734 10.9062 38.4191 10.5716 39.8432 10.5716C41.0638 10.5716 42.0704 10.7983 42.852 11.2516V10.7767C42.852 10.0535 42.5736 9.44901 42.0061 8.94169C41.4385 8.43437 40.7747 8.18606 40.0144 8.18606C38.8687 8.18606 37.9586 8.67177 37.2947 9.6541L35.4851 8.5099C36.481 7.05256 37.9586 6.32935 39.9074 6.32935ZM37.252 14.3387C37.252 14.8785 37.4768 15.3319 37.9372 15.688C38.3869 16.0443 38.9223 16.2277 39.5326 16.2277C40.4 16.2277 41.1709 15.9039 41.8455 15.2562C42.5201 14.6085 42.8627 13.8529 42.8627 12.9786C42.2202 12.4713 41.3315 12.2122 40.1858 12.2122C39.3506 12.2122 38.6547 12.4173 38.0979 12.8167C37.5303 13.2376 37.252 13.7451 37.252 14.3387Z" fill="#383E41"/>
<path d="M56.0007 6.68567L49.1479 22.575H47.0278L49.5761 17.0159L45.0576 6.68567H47.2954L50.5505 14.6087H50.5934L53.7628 6.68567H56.0007Z" fill="#383E41"/>
<path d="M17.7882 7.93665H9.1709V11.4988L14.1338 11.4999C13.9325 12.6851 13.2847 13.6954 12.2921 14.369V14.3697C12.2925 14.3695 12.2929 14.3693 12.2932 14.369L12.2039 16.4981L15.2474 16.6791C15.247 16.6794 15.2466 16.6798 15.2462 16.6802C16.9712 15.0708 17.9596 12.6916 17.9596 9.8808C17.9595 9.205 17.8996 8.55842 17.7882 7.93665Z" fill="#0085F7"/>
<path d="M12.2928 14.369C12.2925 14.3693 12.2921 14.3695 12.2917 14.3697C11.4696 14.9284 10.4109 15.2552 9.17269 15.2552C6.77957 15.2552 4.74946 13.6296 4.02245 11.4384H4.02212C4.02223 11.4387 4.02234 11.4391 4.02245 11.4395L1.48155 11.0338L0.975586 13.8225C2.48551 16.8423 5.58826 18.9145 9.1728 18.9145C11.6498 18.9145 13.7309 18.0935 15.246 16.68C15.2464 16.6797 15.2468 16.6794 15.2472 16.6789L12.2928 14.369Z" fill="#00A94B"/>
<path d="M3.73581 9.67019C3.73581 9.05492 3.83753 8.46016 4.02281 7.90102L3.22941 5.51758H0.975406C0.351203 6.76652 0 8.17624 0 9.67019C0 11.1641 0.352297 12.5738 0.975406 13.8228L0.975844 13.8225L4.02281 11.4394C4.0227 11.439 4.02259 11.4387 4.02248 11.4382C3.83742 10.8795 3.73581 10.2851 3.73581 9.67019Z" fill="#FFBB00"/>
<path d="M9.17227 0.424927C5.58848 0.424927 2.48442 2.49743 0.974609 5.51775L4.02191 7.90119C4.74892 5.70993 6.77903 4.08433 9.17216 4.08433C10.5245 4.08433 11.7356 4.55394 12.6917 5.47143L15.3097 2.83439C13.7197 1.34132 11.6468 0.424927 9.17227 0.424927Z" fill="#FF4031"/>
</svg>
