<svg width="40" height="40" viewBox="0 0 40 40" fill="none" xmlns="http://www.w3.org/2000/svg">
<path d="M6.40755 6.40755C4.53082 8.28427 4.53082 11.327 6.40755 13.2038L9.05378 15.85C9.07365 15.827 9.97818 16.6883 10 16.6665L16.6667 9.99982C16.6885 9.97805 15.8271 9.07358 15.85 9.05377L13.2038 6.40755C11.327 4.53082 8.28427 4.53082 6.40755 6.40755Z" fill="#FEC20E"/>
<path d="M8.55566 25.512C8.82389 24.8293 9.78644 24.8293 10.0547 25.512L10.3162 26.1775C10.3981 26.386 10.5625 26.551 10.7701 26.6332L11.4332 26.8957C12.1134 27.1648 12.1134 28.131 11.4332 28.4002L10.7701 28.6627C10.5625 28.7448 10.3981 28.9098 10.3162 29.1183L10.0547 29.7838C9.78644 30.4665 8.82389 30.4665 8.55566 29.7838L8.29413 29.1183C8.21223 28.9098 8.04786 28.7448 7.84021 28.6627L7.17709 28.4002C6.49696 28.131 6.49696 27.1648 7.17709 26.8957L7.84021 26.6332C8.04786 26.551 8.21223 26.386 8.29413 26.1775L8.55566 25.512Z" fill="#FEC20E"/>
<path d="M33.2783 15.2158C33.5465 14.5332 34.5091 14.5332 34.7773 15.2158L35.0388 15.8814C35.1208 16.0898 35.2851 16.2548 35.4928 16.337L36.1558 16.5995C36.836 16.8687 36.836 17.8349 36.1558 18.1041L35.4928 18.3666C35.2851 18.4487 35.1208 18.6137 35.0388 18.8221L34.7773 19.4877C34.5091 20.1704 33.5465 20.1704 33.2783 19.4877L33.0168 18.8221C32.9348 18.6137 32.7705 18.4487 32.5628 18.3666L31.8996 18.1041C31.2196 17.8349 31.2196 16.8687 31.8996 16.5995L32.5628 16.337C32.7705 16.2548 32.9348 16.0898 33.0168 15.8814L33.2783 15.2158Z" fill="#FEC20E"/>
<path d="M26.833 3.84524C27.1013 3.16259 28.0638 3.16259 28.332 3.84524L29.0493 5.67071C29.1313 5.87912 29.2956 6.04411 29.5033 6.12631L31.322 6.84626C32.0021 7.11549 32.0021 8.08159 31.322 8.35082L29.5033 9.07079C29.2956 9.15299 29.1313 9.31796 29.0493 9.52637L28.3321 11.3518C28.0638 12.0345 27.1013 12.0345 26.833 11.3519L26.1158 9.52637C26.0338 9.31796 25.8695 9.15299 25.6618 9.07079L23.8431 8.35082C23.163 8.08159 23.163 7.11549 23.8431 6.84626L25.6618 6.12631C25.8695 6.04411 26.0338 5.87912 26.1158 5.67071L26.833 3.84524Z" fill="#FEC20E"/>
<path d="M17.6135 10.8167C17.5937 10.8396 16.6888 9.97792 16.667 9.99967L10.0004 16.6663C9.97859 16.6881 10.8402 17.5931 10.8173 17.6129L26.7967 33.5923C28.6733 35.4691 31.7162 35.4691 33.5928 33.5923C35.4697 31.7156 35.4697 28.6728 33.5928 26.7961L17.6135 10.8167Z" fill="#003566"/>
</svg>
