<svg width="35" height="38" viewBox="0 0 35 38" fill="none" xmlns="http://www.w3.org/2000/svg">
<path d="M28.4222 4.22697C28.1492 3.89407 27.8145 3.62749 27.4401 3.44468C27.0656 3.26188 26.6599 3.16696 26.2493 3.16614H8.7493C8.33875 3.16696 7.93297 3.26188 7.55853 3.44468C7.18409 3.62749 6.84941 3.89407 6.57639 4.22697C6.30049 4.5563 6.09166 4.94508 5.9635 5.36796C5.83535 5.79083 5.79076 6.23829 5.83264 6.68114L8.42847 32.0145C8.50777 32.7926 8.84974 33.5112 9.38836 34.0317C9.92699 34.5522 10.6241 34.8376 11.3451 34.8328H23.6535C24.3745 34.8376 25.0716 34.5522 25.6102 34.0317C26.1489 33.5112 26.4908 32.7926 26.5701 32.0145L29.166 6.68114C29.2079 6.23829 29.1633 5.79083 29.0351 5.36796C28.907 4.94508 28.6981 4.5563 28.4222 4.22697Z" fill="#60A5FA"/>
<path d="M6.46022 12.6662H28.5394L29.1665 6.6812C29.2117 6.23704 29.1699 5.78751 29.0438 5.36216C28.9176 4.9368 28.71 4.54525 28.4345 4.21325C28.159 3.88124 27.8219 3.6163 27.4454 3.43584C27.0688 3.25538 26.6614 3.16348 26.2498 3.1662H8.7498C8.33822 3.16348 7.93077 3.25538 7.55424 3.43584C7.17771 3.6163 6.84062 3.88124 6.56513 4.21325C6.28964 4.54525 6.08199 4.9368 5.95583 5.36216C5.82967 5.78751 5.78785 6.23704 5.83314 6.6812L6.46022 12.6662Z" fill="#60A5FA"/>
</svg>
