<svg width="28" height="38" viewBox="0 0 28 38" fill="none" xmlns="http://www.w3.org/2000/svg">
<path d="M13.5101 26.8156L14.0134 24.3924L13.5101 21.6992L11.1054 22.3046L9.20801 23.7592L9.9423 27.0916L11.7951 27.3935L13.5101 26.8156Z" fill="#FDBF00"/>
<path d="M15.0569 27.2817L17.0776 27.0916L17.8119 23.7592L15.7094 22.0436L13.5098 21.6992V26.8156L15.0569 27.2817Z" fill="#FF9F22"/>
<path d="M9.1048 8.14209L0 9.81543L6.38243 16.5208L10.229 16.0994L13.5097 13.7295L11.8942 9.88574L9.1048 8.14209Z" fill="#FEC20E"/>
<path d="M13.5098 13.7295L16.8651 15.9502L20.6371 16.5208L27.0196 9.81543L17.9147 8.14209L15.1253 10.0846L13.5098 13.7295Z" fill="#FF9F22"/>
<path d="M9.10449 8.14204L13.5094 13.7295L14.2551 6.86471L13.5094 0L9.10449 8.14204Z" fill="#FFDA2D"/>
<path d="M17.9147 8.14204L13.5098 0V13.7295L17.9147 8.14204Z" fill="#FDBF00"/>
<path d="M6.38232 16.5208L5.16016 25.6971L13.5096 21.6991L14.2553 17.7143L13.5096 13.7295L6.38232 16.5208Z" fill="#FFDA2D"/>
<path d="M21.8593 25.6971L20.6371 16.5208L13.5098 13.7295V21.6991L17.6845 23.6981L21.8593 25.6971Z" fill="#FEC20E"/>
<path d="M11.2733 26.8157C9.42324 26.8157 7.91797 28.3208 7.91797 30.171V31.2894L10.7141 32.4079L13.5102 31.2894L14.6286 29.0526L13.5102 26.8157C12.7279 26.8157 12.0557 26.8157 11.2733 26.8157Z" fill="#FFDA2D"/>
<path d="M19.102 30.171C19.102 28.3209 17.5969 26.8157 15.7467 26.8157C14.9643 26.8157 14.2921 26.8157 13.5098 26.8157V31.2894L16.3059 32.4079L19.102 31.2894V30.171Z" fill="#FDBF00"/>
<path d="M5.68052 31.2893V32.4077C5.68052 34.2579 4.1754 35.7631 2.3252 35.7631L7.91741 36.8815L13.5096 35.7631L14.6281 33.5262L13.5096 31.2893C11.4011 31.2893 6.9088 31.2893 5.68052 31.2893Z" fill="#003566"/>
<path d="M24.6942 35.7631C22.8441 35.7631 21.3389 34.258 21.3389 32.4077C21.3389 32.0166 21.3389 31.6805 21.3389 31.2893C19.2304 31.2893 14.738 31.2893 13.5098 31.2893V35.7631L19.102 36.8815L24.6942 35.7631Z" fill="#002A52"/>
<path d="M0.0888672 35.7632V38.0001H13.5102L14.2558 36.9569L13.5102 35.7632H0.0888672Z" fill="#003566"/>
<path d="M13.5098 35.7632H26.9311V38.0001H13.5098V35.7632Z" fill="#002A52"/>
</svg>
