<svg width="17" height="17" viewBox="0 0 17 17" fill="none" xmlns="http://www.w3.org/2000/svg">
<g clip-path="url(#clip0_140_5617)">
<path d="M2.125 7.79167C2.125 8.53582 2.27157 9.27269 2.55635 9.96021C2.84113 10.6477 3.25853 11.2724 3.78473 11.7986C4.31093 12.3248 4.93562 12.7422 5.62313 13.027C6.31064 13.3118 7.04751 13.4583 7.79167 13.4583C8.53582 13.4583 9.27269 13.3118 9.96021 13.027C10.6477 12.7422 11.2724 12.3248 11.7986 11.7986C12.3248 11.2724 12.7422 10.6477 13.027 9.96021C13.3118 9.27269 13.4583 8.53582 13.4583 7.79167C13.4583 7.04751 13.3118 6.31064 13.027 5.62313C12.7422 4.93562 12.3248 4.31093 11.7986 3.78473C11.2724 3.25853 10.6477 2.84113 9.96021 2.55635C9.27269 2.27157 8.53582 2.125 7.79167 2.125C7.04751 2.125 6.31064 2.27157 5.62313 2.55635C4.93562 2.84113 4.31093 3.25853 3.78473 3.78473C3.25853 4.31093 2.84113 4.93562 2.55635 5.62313C2.27157 6.31064 2.125 7.04751 2.125 7.79167Z" stroke="#A8A29E" stroke-width="2" stroke-linecap="round" stroke-linejoin="round"/>
<path d="M14.8753 14.8748L12.042 12.0415" stroke="#A8A29E" stroke-width="2" stroke-linecap="round" stroke-linejoin="round"/>
</g>
<defs>
<clipPath id="clip0_140_5617">
<rect width="17" height="17" fill="white"/>
</clipPath>
</defs>
</svg>
