<svg width="40" height="40" viewBox="0 0 40 40" fill="none" xmlns="http://www.w3.org/2000/svg">
<path d="M13 8.33333V5" stroke="#FEC20E" stroke-width="2" stroke-linecap="round"/>
<path d="M27 8.33333V5" stroke="#FEC20E" stroke-width="2" stroke-linecap="round"/>
<path fill-rule="evenodd" clip-rule="evenodd" d="M36.6663 13.3333H3.33301V18.3333C3.95831 18.3333 4.27096 18.3333 4.54562 18.3794C5.68656 18.5714 6.64632 19.3414 7.08127 20.4134C7.18597 20.6716 7.25379 20.9768 7.38944 21.5873L8.83957 28.1128C9.39572 30.6156 9.67381 31.8669 10.5878 32.6001C11.5018 33.3333 12.7837 33.3333 15.3475 33.3333H24.6518C27.2157 33.3333 28.4975 33.3333 29.4115 32.6001C30.3255 31.8669 30.6037 30.6156 31.1598 28.1128L32.6098 21.5873C32.7455 20.9769 32.8133 20.6716 32.918 20.4134C33.353 19.3414 34.3128 18.5714 35.4537 18.3794C35.7283 18.3333 36.041 18.3333 36.6663 18.3333V13.3333ZM15.8103 21.3926C15.659 20.4846 14.8003 19.8713 13.8923 20.0226C12.9844 20.1739 12.371 21.0326 12.5224 21.9406L13.3557 26.9406C13.507 27.8486 14.3657 28.4619 15.2737 28.3106C16.1816 28.1593 16.795 27.3006 16.6437 26.3926L15.8103 21.3926ZM27.4768 21.9406C27.6282 21.0326 27.0148 20.1739 26.1068 20.0226C25.1988 19.8713 24.3402 20.4846 24.1888 21.3926L23.3555 26.3926C23.2042 27.3006 23.8175 28.1593 24.7255 28.3106C25.6335 28.4619 26.4922 27.8486 26.6435 26.9406L27.4768 21.9406Z" fill="#003566"/>
</svg>
