<svg width="24" height="24" viewBox="0 0 24 24" fill="none" xmlns="http://www.w3.org/2000/svg">
<g clip-path="url(#clip0_240_2184)">
<path d="M18.6706 13.0412L12.0074 20L5.34419 13.0412C4.90469 12.5902 4.5585 12.0482 4.32743 11.4492C4.09635 10.8502 3.98539 10.2072 4.00154 9.56082C4.01769 8.91439 4.16059 8.27848 4.42125 7.69315C4.68191 7.10782 5.05468 6.58574 5.51609 6.15979C5.97749 5.73383 6.51754 5.41323 7.10222 5.21818C7.6869 5.02312 8.30355 4.95783 8.91333 5.02643C9.52312 5.09502 10.1128 5.29601 10.6453 5.61673C11.1778 5.93745 11.6416 6.37097 12.0074 6.88997C12.3748 6.37474 12.8391 5.94501 13.3712 5.62769C13.9034 5.31037 14.4919 5.11229 15.1 5.04584C15.708 4.97939 16.3226 5.046 16.9051 5.24151C17.4876 5.43703 18.0256 5.75722 18.4854 6.18207C18.9452 6.60691 19.3169 7.12726 19.5772 7.71054C19.8375 8.29382 19.9808 8.92747 19.9982 9.57185C20.0156 10.2162 19.9067 10.8574 19.6782 11.4554C19.4498 12.0533 19.1068 12.5951 18.6706 13.0468" stroke="#003566" stroke-width="1.5" stroke-linecap="round" stroke-linejoin="round"/>
</g>
<defs>
<clipPath id="clip0_240_2184">
<rect width="24" height="24" fill="white"/>
</clipPath>
</defs>
</svg>
