<svg width="40" height="40" viewBox="0 0 40 40" fill="none" xmlns="http://www.w3.org/2000/svg">
<path d="M7.17147 22.0901H4.63773C4.57065 22.0901 4.51904 22.1469 4.51904 22.2088V33.0662C4.51904 33.1333 4.57065 33.1849 4.63773 33.1849H7.17663C7.24372 33.1849 7.29532 33.1333 7.29532 33.0662V32.1167V23.8653V22.2139C7.29016 22.1469 7.23856 22.0901 7.17147 22.0901Z" fill="#003566"/>
<path d="M34.645 26.4144C34.2374 26.1977 33.7678 26.1616 33.3498 26.3112L25.0055 29.3042C24.6029 29.5261 24.1437 29.65 23.6534 29.65H18.8853C18.6014 29.65 18.3692 29.4177 18.3692 29.1339C18.3692 28.8501 18.6014 28.6179 18.8853 28.6179H23.6534C23.9527 28.6179 24.2417 28.5405 24.4894 28.4115C24.5152 28.3908 24.5462 28.3753 24.5771 28.365C24.959 28.1328 25.2325 27.7613 25.3048 27.3278C25.3822 26.8582 25.2583 26.4092 24.9539 26.0532C24.6546 25.7023 24.2262 25.5062 23.767 25.5062H20.0102C18.9317 25.5062 17.8532 25.1192 16.9708 24.4173C15.4794 23.2253 12.3987 21.6359 8.32715 24.149V31.5748H8.37359C9.3747 31.5748 11.5266 31.7502 14.5557 32.932C17.3784 34.0363 20.3818 34.2891 23.2406 33.6699C26.1717 33.0352 30.5425 31.7348 34.7379 29.1649C35.0888 28.9482 35.3468 28.5869 35.4449 28.1689C35.5997 27.4723 35.2746 26.755 34.645 26.4144Z" fill="#003566"/>
<path d="M23.6073 22.5132C23.6073 22.5132 33.2624 18.5965 33.2624 10.8972C33.2624 8.188 31.0589 6 28.3652 6C26.0534 6 24.1234 7.60488 23.6073 9.75159C23.0861 7.61004 21.1716 6 18.865 6C16.1558 6 13.9678 8.188 13.9678 10.8972C13.9678 18.5965 23.6073 22.5132 23.6073 22.5132ZM16.548 10.892C16.548 11.1759 16.3157 11.4081 16.0319 11.4081C15.7481 11.4081 15.5159 11.1759 15.5159 10.892C15.521 9.04978 17.0227 7.54811 18.865 7.54811C19.1488 7.54811 19.381 7.78033 19.381 8.06415C19.381 8.34797 19.1488 8.58019 18.865 8.58019C17.5904 8.58019 16.548 9.61742 16.548 10.892Z" fill="#FEC20E"/>
</svg>
