<svg width="42" height="46" viewBox="0 0 42 46" fill="none" xmlns="http://www.w3.org/2000/svg">
<path d="M41.4268 31.5442L41.4268 14.456C41.4268 12.3446 40.2947 10.395 38.4709 9.33487L23.6736 0.790722C21.8408 -0.269434 19.5857 -0.269435 17.7529 0.790722L2.95567 9.33486C1.12285 10.395 -0.000191275 12.3446 -0.000191367 14.456L-0.000192114 31.5442C-0.000192206 33.6556 1.13184 35.6052 2.95566 36.6653L17.7529 45.2095C19.5857 46.2696 21.8408 46.2696 23.6736 45.2095L38.4709 36.6743C40.3037 35.6052 41.4268 33.6556 41.4268 31.5442Z" fill="#335D85"/>
<g clip-path="url(#clip0_0_1)">
<path d="M28.0352 23.575L28.4289 25.2662L31.4733 25.8299L34.5178 25.2662C34.5178 24.857 34.5178 22.2957 34.5178 21.8838L31.4733 21.3201L28.4289 21.8838L28.0352 23.575Z" fill="#D9E5FF"/>
<path d="M12.2505 23.575L11.8568 21.8838L8.81219 21.3201L5.76758 21.8838L5.76758 25.2662L8.67063 25.8299L11.8568 25.2662L12.2505 23.575Z" fill="#ECF2FF"/>
<path d="M11.8568 21.8838L5.76758 21.8838L7.78174 17.6558L14.1103 17.6558L11.8568 21.8838Z" fill="#7ED8F6"/>
<path d="M14.1103 29.4941L7.78174 29.4941L5.76758 25.2661L11.8568 25.2661L14.1103 29.4941Z" fill="#7ED8F6"/>
<path d="M26.1753 17.6558L32.5035 17.6558C32.7485 18.1701 34.2722 21.3686 34.5176 21.8838C33.7785 21.8838 29.1696 21.8838 28.4288 21.8838L26.1753 17.6558Z" fill="#4895FF"/>
<path d="M28.4288 25.2661L34.5176 25.2661C34.2726 25.7805 32.7489 28.9789 32.5035 29.4941C31.7351 29.4941 26.9454 29.4941 26.1753 29.4941L28.4288 25.2661Z" fill="#4895FF"/>
<path d="M14.1663 29.5514C15.6974 31.0825 17.8114 32.0308 20.1427 32.0309L20.7064 23.5749L20.1427 15.1189C17.8114 15.119 15.6974 16.0673 14.1663 17.5984C10.861 20.9038 10.8589 26.2439 14.1663 29.5514Z" fill="#FFDA2D"/>
<path d="M28.5987 23.5749C28.5987 18.9123 24.8054 15.1189 20.1427 15.1189H20.1426L20.1426 32.0309H20.1427C24.8053 32.0309 28.5987 28.2376 28.5987 23.5749Z" fill="#FDBF00"/>
<path d="M18.3464 21.1717C17.8955 21.2546 15.0863 21.7708 14.6338 21.854C15.339 22.5949 16.8208 24.1517 17.2363 24.5882C17.1012 25.6023 16.8174 27.7327 16.7379 28.3298C17.6606 27.888 19.599 26.9599 20.1423 26.6998L20.9879 23.575L20.1423 17.8521C19.6557 18.7515 18.6331 20.6417 18.3464 21.1717Z" fill="#FF9F22"/>
<path d="M23.5472 28.3297C23.4122 27.3156 23.1284 25.1852 23.049 24.5881C23.365 24.256 25.3343 22.1872 25.6515 21.8539C24.6474 21.6694 22.5336 21.2809 21.9389 21.1716C21.7207 20.7684 20.3616 18.2562 20.1427 17.8516L20.1426 17.8517L20.1426 17.8519L20.1426 26.6996L20.1426 26.6996L20.1427 26.6995C20.5562 26.8976 23.1323 28.1311 23.5472 28.3297Z" fill="#FF7037"/>
</g>
<defs>
<clipPath id="clip0_0_1">
<rect width="28.75" height="28.75" fill="white" transform="translate(5.76758 9.19995)"/>
</clipPath>
</defs>
</svg>
