<svg width="24" height="24" viewBox="0 0 24 24" fill="none" xmlns="http://www.w3.org/2000/svg">
<g clip-path="url(#clip0_368_10362)">
<path d="M10 21.0001V14.5001C10 13.5719 9.63125 12.6816 8.97487 12.0252C8.3185 11.3689 7.42826 11.0001 6.5 11.0001M6.5 11.0001C5.57174 11.0001 4.6815 11.3689 4.02513 12.0252C3.36875 12.6816 3 13.5719 3 14.5001V21.0001H21V15.0001C21 13.9393 20.5786 12.9218 19.8284 12.1717C19.0783 11.4215 18.0609 11.0001 17 11.0001H6.5Z" stroke="white" stroke-width="1.5" stroke-linecap="round" stroke-linejoin="round"/>
<path d="M12 11.0001V3.00012H16L18 5.00012L16 7.00012H12" stroke="white" stroke-width="1.5" stroke-linecap="round" stroke-linejoin="round"/>
<path d="M6 15.0001H7" stroke="white" stroke-width="1.5" stroke-linecap="round" stroke-linejoin="round"/>
</g>
<defs>
<clipPath id="clip0_368_10362">
<rect width="24" height="24" fill="white"/>
</clipPath>
</defs>
</svg>
