<svg width="24" height="24" viewBox="0 0 24 24" fill="none" xmlns="http://www.w3.org/2000/svg">
<g clip-path="url(#clip0_196_1546)">
<path d="M6 4.00049H17C17.5304 4.00049 18.0391 4.2112 18.4142 4.58627C18.7893 4.96135 19 5.47006 19 6.00049V18.0005C19 18.5309 18.7893 19.0396 18.4142 19.4147C18.0391 19.7898 17.5304 20.0005 17 20.0005H6C5.73478 20.0005 5.48043 19.8951 5.29289 19.7076C5.10536 19.5201 5 19.2657 5 19.0005V5.00049C5 4.73527 5.10536 4.48092 5.29289 4.29338C5.48043 4.10585 5.73478 4.00049 6 4.00049ZM9 4.00049V22.0005V4.00049Z" fill="white"/>
<path d="M9 4.00049V22.0005M6 4.00049H17C17.5304 4.00049 18.0391 4.2112 18.4142 4.58627C18.7893 4.96135 19 5.47006 19 6.00049V18.0005C19 18.5309 18.7893 19.0396 18.4142 19.4147C18.0391 19.7898 17.5304 20.0005 17 20.0005H6C5.73478 20.0005 5.48043 19.8951 5.29289 19.7076C5.10536 19.5201 5 19.2657 5 19.0005V5.00049C5 4.73527 5.10536 4.48092 5.29289 4.29338C5.48043 4.10585 5.73478 4.00049 6 4.00049Z" stroke="white" stroke-width="1.5" stroke-linecap="round" stroke-linejoin="round"/>
<path d="M13 7.99951H15" stroke="#003566" stroke-width="1.5" stroke-linecap="round" stroke-linejoin="round"/>
<path d="M13 12H15" stroke="#003566" stroke-width="1.5" stroke-linecap="round" stroke-linejoin="round"/>
<path d="M8 22C8 22.5523 8.44772 23 9 23C9.55229 23 10 22.5523 10 22L8 22ZM8 3L8 22L10 22L10 3L8 3Z" fill="#003566"/>
</g>
<defs>
<clipPath id="clip0_196_1546">
<rect width="24" height="24" fill="white"/>
</clipPath>
</defs>
</svg>
