<svg width="52" height="52" viewBox="0 0 52 52" fill="none" xmlns="http://www.w3.org/2000/svg">
<path fill-rule="evenodd" clip-rule="evenodd" d="M34.2494 3.25004C34.2494 1.91536 35.3313 0.833374 36.666 0.833374H46.3327C49.0021 0.833374 51.166 2.99733 51.166 5.66671V15.3334C51.166 16.6681 50.0841 17.75 48.7494 17.75C47.4146 17.75 46.3327 16.6681 46.3327 15.3334V9.08117L35.3782 20.0357C35.2573 20.1566 35.1266 20.2619 34.9891 20.3521C37.5539 23.6327 39.0827 27.7628 39.0827 32.25C39.0827 42.9276 30.4269 51.5834 19.7493 51.5834C9.07184 51.5834 0.416016 42.9276 0.416016 32.25C0.416016 21.5725 9.07184 12.9167 19.7493 12.9167C24.2344 12.9167 28.3628 14.444 31.6427 17.0068C31.7329 16.8689 31.8385 16.7381 31.9596 16.6171L42.9097 5.66671H36.666C35.3313 5.66671 34.2494 4.58472 34.2494 3.25004ZM19.7493 46.7411C11.7461 46.7411 5.25817 40.2533 5.25817 32.25C5.25817 24.2468 11.7461 17.7589 19.7493 17.7589C27.7526 17.7589 34.2404 24.2468 34.2404 32.25C34.2404 40.2533 27.7526 46.7411 19.7493 46.7411Z" fill="white"/>
</svg>
