<svg width="24" height="24" viewBox="0 0 24 24" fill="none" xmlns="http://www.w3.org/2000/svg">
<g clip-path="url(#clip0_206_6092)">
<path fill-rule="evenodd" clip-rule="evenodd" d="M10.4682 1.41438C10.7916 1.67313 10.8441 2.1451 10.5853 2.46855C10.3172 2.80371 9.98618 3.40678 9.89219 4.06807C9.80288 4.69647 9.9241 5.36381 10.53 5.9697C11.0927 6.53243 11.3492 7.16754 11.4119 7.79983H9.89634C9.83789 7.51825 9.70013 7.26116 9.46932 7.03036C8.47521 6.03624 8.2631 4.87026 8.40712 3.85699C8.54646 2.87661 9.01547 2.02967 9.414 1.53151C9.67276 1.20806 10.1447 1.15562 10.4682 1.41438ZM8.4119 7.79983C8.34921 7.16754 8.09272 6.53243 7.52998 5.9697C6.9241 5.36381 6.80288 4.69647 6.89219 4.06807C6.98618 3.40678 7.31717 2.80371 7.58531 2.46855C7.84406 2.1451 7.79162 1.67313 7.46817 1.41438C7.14473 1.15562 6.67276 1.20806 6.414 1.53151C6.01547 2.02967 5.54646 2.87661 5.40712 3.85699C5.2631 4.87026 5.47521 6.03624 6.46932 7.03036C6.70013 7.26116 6.83789 7.51825 6.89634 7.79983H1.2002V13.0558C1.2002 15.2837 2.08519 17.4202 3.6605 18.9955C5.2358 20.5708 7.37238 21.4558 9.6002 21.4558H14.4002C16.628 21.4558 18.7646 20.5708 20.3399 18.9955C21.9152 17.4202 22.8002 15.2837 22.8002 13.0558V7.79983H11.4119C11.4694 8.37941 11.364 8.95663 11.1824 9.47359C10.8091 10.5363 10.082 11.4787 9.53036 12.0303C9.23748 12.3232 8.76261 12.3233 8.4697 12.0304C8.17679 11.7375 8.17676 11.2626 8.46964 10.9697C8.91792 10.5214 9.49061 9.76377 9.76717 8.97646C9.91774 8.54781 9.96993 8.15441 9.89634 7.79983H8.4119ZM8.4119 7.79983H6.89634C6.96993 8.15441 6.91774 8.54781 6.76717 8.97646C6.49061 9.76377 5.91792 10.5214 5.46964 10.9697C5.17676 11.2626 5.17679 11.7375 5.4697 12.0304C5.76261 12.3233 6.23748 12.3232 6.53036 12.0303C7.08197 11.4787 7.8091 10.5363 8.1824 9.47359C8.36399 8.95663 8.46936 8.37941 8.4119 7.79983Z" fill="white"/>
</g>
<defs>
<clipPath id="clip0_206_6092">
<rect width="24" height="24" fill="white"/>
</clipPath>
</defs>
</svg>
