<svg width="24" height="24" viewBox="0 0 24 24" fill="none" xmlns="http://www.w3.org/2000/svg">
<g clip-path="url(#clip0_368_5188)">
<path fill-rule="evenodd" clip-rule="evenodd" d="M21.3002 9.2998H2.7002V13.0558C2.7002 14.8858 3.42716 16.6408 4.72116 17.9348C6.01516 19.2288 7.7702 19.9558 9.6002 19.9558H14.4002C16.2302 19.9558 17.9852 19.2288 19.2792 17.9348C20.5732 16.6408 21.3002 14.8858 21.3002 13.0558V9.2998ZM2.7002 7.7998H1.2002V9.2998V13.0558C1.2002 15.2836 2.08519 17.4202 3.6605 18.9955C5.2358 20.5708 7.37238 21.4558 9.6002 21.4558H14.4002C16.628 21.4558 18.7646 20.5708 20.3399 18.9955C21.9152 17.4202 22.8002 15.2836 22.8002 13.0558V9.2998V7.7998H21.3002H2.7002Z" fill="#809AB3"/>
<path d="M9.99965 2C9.33299 2.83333 8.39965 4.9 9.99965 6.5C11.5997 8.1 9.99988 10.5 9 11.5" stroke="#809AB3" stroke-width="1.5" stroke-linecap="round"/>
<path d="M6.99965 2C6.33299 2.83333 5.39965 4.9 6.99965 6.5C8.59965 8.1 6.99988 10.5 6 11.5" stroke="#809AB3" stroke-width="1.5" stroke-linecap="round"/>
</g>
<defs>
<clipPath id="clip0_368_5188">
<rect width="24" height="24" fill="#809AB3"/>
</clipPath>
</defs>
</svg>
