<svg width="21" height="21" viewBox="0 0 21 21" fill="none" xmlns="http://www.w3.org/2000/svg">
<g clip-path="url(#clip0_368_4537)">
<path d="M5.19629 17.2875C5.21766 16.9935 5.09378 16.7078 4.86464 16.5224C2.96474 14.9857 1.775 12.6973 1.775 10.1384C1.775 5.55789 5.64707 1.775 10.5085 1.775C15.3591 1.775 19.2318 5.55728 19.2318 10.1384C19.2318 14.7183 15.3501 18.5018 10.4983 18.5018C9.69219 18.5018 8.92684 18.3989 8.19 18.203C8.01988 18.1578 7.84025 18.1635 7.67332 18.2193L5.06507 19.0916L5.19629 17.2875ZM5.03176 19.5497L5.03179 19.5494L5.03176 19.5497Z" stroke="#78716C" stroke-width="1.8" stroke-linejoin="round"/>
<path d="M8.88109 7.69586C8.94439 7.70499 8.99714 7.71411 9.06045 7.72324C9.99947 7.92398 10.9596 8.78172 11.6981 9.29271C12.1096 9.5847 12.4578 9.55733 12.8693 9.28358C13.745 8.68134 14.6524 8.10648 15.5492 7.51337C15.7919 7.34912 16.0451 7.17575 16.3405 7.39475C16.6676 7.63199 16.4671 7.88749 16.2983 8.12473C15.412 9.34746 14.5363 10.5702 13.6395 11.7838C13.0275 12.6233 12.1624 12.7419 11.2339 12.1488C10.5903 11.729 9.92561 11.3367 9.29257 10.8987C8.87053 10.6067 8.52236 10.6432 8.12143 10.9169C7.23516 11.5192 6.33835 12.094 5.44153 12.6871C5.19886 12.8514 4.94564 13.0248 4.65022 12.7966C4.3548 12.5776 4.51306 12.3313 4.67132 12.1032C5.58924 10.8439 6.49661 9.5847 7.41453 8.32548C7.7205 7.89661 8.29024 7.64112 8.88109 7.69586Z" fill="#78716C"/>
</g>
<defs>
<clipPath id="clip0_368_4537">
<rect width="21" height="21" fill="white"/>
</clipPath>
</defs>
</svg>
