<svg width="60" height="60" viewBox="0 0 60 60" fill="none" xmlns="http://www.w3.org/2000/svg">
<rect width="60" height="60" rx="30" fill="#FFC300"/>
<path d="M24.8086 24.9863C24.8086 23.6639 25.4215 22.3956 26.5125 21.4605C27.6034 20.5253 29.0831 20 30.626 20C32.1688 20 33.6485 20.5253 34.7395 21.4605C35.8304 22.3956 36.4433 23.6639 36.4433 24.9863V31.8585C36.4433 33.181 35.8304 34.4492 34.7395 35.3844C33.6485 36.3195 32.1688 36.8448 30.626 36.8448C29.0831 36.8448 27.6034 36.3195 26.5125 35.3844C25.4215 34.4492 24.8086 33.181 24.8086 31.8585V24.9863Z" fill="white" stroke="white" stroke-width="1.46657" stroke-linecap="round" stroke-linejoin="round"/>
<path d="M27.5488 27.8044C27.5488 27.8044 28.4987 27.0811 30.6951 27.1268C32.8916 27.1726 33.7051 27.8044 33.7051 27.8044" stroke="#FDBA74" stroke-linecap="round"/>
<path d="M28.9229 29.7198C28.9229 29.7198 29.4488 29.3193 30.665 29.3447C31.8813 29.37 32.3317 29.7198 32.3317 29.7198" stroke="#FDBA74" stroke-linecap="round"/>
<path d="M21.0693 30.6121C21.0693 33.4774 21.7045 35.8098 23.5747 37.8359C25.445 39.862 27.9815 41.0002 30.6265 41.0002C33.2714 41.0002 35.8079 39.862 37.6782 37.8359C39.5484 35.8098 40.5991 33.5207 40.5991 30.6121" stroke="white" stroke-width="1.46657" stroke-linecap="round" stroke-linejoin="round"/>
</svg>
