<svg width="80" height="36" viewBox="0 0 80 36" fill="none" xmlns="http://www.w3.org/2000/svg">
<g clip-path="url(#clip0_328_4141)">
<path d="M61.8415 13.0823H57.524C57.2701 13.0823 57.0161 13.3377 56.8891 13.5932L55.1113 24.8335C55.1113 25.089 55.2383 25.2167 55.4923 25.2167H57.778C58.032 25.2167 58.1589 25.089 58.1589 24.8335L58.6669 21.6403C58.6669 21.3848 58.9209 21.1293 59.3018 21.1293H60.6986C63.6193 21.1293 65.2701 19.7243 65.651 16.9142C65.905 15.7646 65.651 14.7428 65.1431 14.1041C64.3812 13.4655 63.2383 13.0823 61.8415 13.0823ZM62.3494 17.2974C62.0955 18.8302 60.9526 18.8302 59.8097 18.8302H59.0478L59.5558 15.8924C59.5558 15.7646 59.6828 15.6369 59.9367 15.6369H60.1907C60.9526 15.6369 61.7145 15.6369 62.0955 16.1478C62.3494 16.2756 62.3494 16.6587 62.3494 17.2974Z" fill="#139AD6"/>
<path d="M30.7302 13.0823H26.4127C26.1587 13.0823 25.9048 13.3377 25.7778 13.5932L24 24.8335C24 25.089 24.127 25.2167 24.381 25.2167H26.4127C26.6667 25.2167 26.9206 24.9613 27.0476 24.7058L27.5556 21.6403C27.5556 21.3848 27.8095 21.1293 28.1905 21.1293H29.5873C32.5079 21.1293 34.1587 19.7243 34.5397 16.9142C34.7937 15.7646 34.5397 14.7428 34.0317 14.1041C33.2698 13.4655 32.254 13.0823 30.7302 13.0823ZM31.2381 17.2974C30.9841 18.8302 29.8413 18.8302 28.6984 18.8302H28.0635L28.5714 15.8924C28.5714 15.7646 28.6984 15.6369 28.9524 15.6369H29.2063C29.9683 15.6369 30.7302 15.6369 31.1111 16.1478C31.2381 16.2756 31.3651 16.6587 31.2381 17.2974Z" fill="#263B80"/>
<path d="M43.8095 17.1698H41.7777C41.6508 17.1698 41.3968 17.2975 41.3968 17.4252L41.2698 18.0639L41.1428 17.8084C40.6349 17.1698 39.746 16.9143 38.7301 16.9143C36.4444 16.9143 34.4127 18.7025 34.0317 21.1294C33.7777 22.4067 34.1587 23.5563 34.7936 24.3227C35.4285 25.0891 36.3174 25.3446 37.4603 25.3446C39.365 25.3446 40.3809 24.195 40.3809 24.195L40.2539 24.8336C40.2539 25.0891 40.3809 25.2168 40.6349 25.2168H42.5396C42.7936 25.2168 43.0476 24.9614 43.1746 24.7059L44.3174 17.553C44.1904 17.4252 43.9365 17.1698 43.8095 17.1698ZM40.8888 21.2572C40.6349 22.4067 39.746 23.3009 38.4761 23.3009C37.8412 23.3009 37.3333 23.0454 37.0793 22.7899C36.8254 22.4067 36.6984 21.8958 36.6984 21.2572C36.8254 20.1076 37.8412 19.2135 38.9841 19.2135C39.619 19.2135 40 19.4689 40.3809 19.7244C40.7619 20.1076 40.8888 20.7462 40.8888 21.2572Z" fill="#263B80"/>
<path d="M74.7939 17.1698H72.7621C72.6351 17.1698 72.3812 17.2975 72.3812 17.4252L72.2542 18.0639L72.1272 17.8084C71.6192 17.1698 70.7304 16.9143 69.7145 16.9143C67.4288 16.9143 65.397 18.7025 65.0161 21.1294C64.7621 22.4067 65.1431 23.5563 65.778 24.3227C66.4129 25.0891 67.3018 25.3446 68.4446 25.3446C70.3494 25.3446 71.3653 24.195 71.3653 24.195L71.2383 24.8336C71.2383 25.0891 71.3653 25.2168 71.6193 25.2168H73.524C73.778 25.2168 74.0319 24.9614 74.1589 24.7059L75.3018 17.553C75.1748 17.4252 75.0478 17.1698 74.7939 17.1698ZM71.8732 21.2572C71.6192 22.4067 70.7304 23.3009 69.4605 23.3009C68.8256 23.3009 68.3177 23.0454 68.0637 22.7899C67.8097 22.4067 67.6827 21.8958 67.6827 21.2572C67.8097 20.1076 68.8256 19.2135 69.9685 19.2135C70.6034 19.2135 70.9843 19.4689 71.3653 19.7244C71.8732 20.1076 72.0002 20.7462 71.8732 21.2572Z" fill="#139AD6"/>
<path d="M54.8569 17.1697H52.6981C52.4442 17.1697 52.3172 17.2974 52.1902 17.4251L49.3966 21.768L48.1267 17.6806C47.9997 17.4251 47.8728 17.2974 47.4918 17.2974H45.4601C45.2061 17.2974 45.0791 17.5529 45.0791 17.8083L47.3648 24.5781L45.2061 27.6436C45.0791 27.8991 45.2061 28.2823 45.4601 28.2823H47.4918C47.7458 28.2823 47.8728 28.1545 47.9997 28.0268L54.9839 17.9361C55.3648 17.5529 55.1108 17.1697 54.8569 17.1697Z" fill="#263B80"/>
<path d="M77.2065 13.4656L75.4287 24.9614C75.4287 25.2169 75.5557 25.3446 75.8097 25.3446H77.5874C77.8414 25.3446 78.0954 25.0891 78.2224 24.8337L80.0001 13.5933C80.0001 13.3379 79.8732 13.2101 79.6192 13.2101H77.5874C77.4605 13.0824 77.3335 13.2101 77.2065 13.4656Z" fill="#139AD6"/>
<path d="M14.6032 9.2503C13.7143 8.22845 12.0635 7.71753 9.77778 7.71753H3.42857C3.04762 7.71753 2.66667 8.10072 2.53968 8.48391L0 25.2167C0 25.5999 0.253968 25.8553 0.507937 25.8553H4.44444L5.46032 19.5965V19.852C5.5873 19.4688 5.96825 19.0856 6.34921 19.0856H8.25397C11.9365 19.0856 14.7302 17.5528 15.619 13.3377C15.619 13.21 15.619 13.0822 15.619 12.9545C15.4921 12.9545 15.4921 12.9545 15.619 12.9545C15.746 11.294 15.4921 10.2721 14.6032 9.2503Z" fill="#263B80"/>
<path d="M15.492 12.9546C15.492 13.0823 15.492 13.2101 15.492 13.3378C14.6032 17.6806 11.8095 19.0857 8.12697 19.0857H6.22221C5.84125 19.0857 5.4603 19.4689 5.33332 19.8521L4.06348 27.6437C4.06348 27.8991 4.19046 28.1546 4.57141 28.1546H7.873C8.25395 28.1546 8.63491 27.8991 8.63491 27.5159V27.3882L9.26983 23.4285V23.1731C9.26983 22.7899 9.65078 22.5344 10.0317 22.5344H10.5397C13.7143 22.5344 16.254 21.2571 16.8889 17.4252C17.1428 15.8924 17.0159 14.4874 16.254 13.5932C16.127 13.3378 15.873 13.0823 15.492 12.9546Z" fill="#139AD6"/>
<path d="M14.6038 12.5715C14.4768 12.5715 14.3498 12.4438 14.2228 12.4438C14.0959 12.4438 13.9689 12.4438 13.8419 12.3161C13.334 12.1884 12.826 12.1884 12.1911 12.1884H7.23871C7.11173 12.1884 6.98475 12.1884 6.85776 12.3161C6.60379 12.4438 6.47681 12.6993 6.47681 12.9547L5.46094 19.5968V19.8522C5.58792 19.469 5.96887 19.0858 6.34983 19.0858H8.25459C11.9371 19.0858 14.7308 17.5531 15.6197 13.3379C15.6197 13.2102 15.6197 13.0825 15.7467 12.9547C15.4927 12.827 15.3657 12.6993 15.1117 12.6993C14.7308 12.5715 14.7308 12.5715 14.6038 12.5715Z" fill="#232C65"/>
</g>
<defs>
<clipPath id="clip0_328_4141">
<rect width="80" height="36" fill="white"/>
</clipPath>
</defs>
</svg>
