<svg width="310" height="248" viewBox="0 0 310 248" fill="none" xmlns="http://www.w3.org/2000/svg">
<path d="M255.75 0H54.25C39.862 0 26.0633 5.71561 15.8895 15.8895C5.71561 26.0633 0 39.862 0 54.25V193.75C0 208.138 5.71561 221.937 15.8895 232.111C26.0633 242.284 39.862 248 54.25 248H255.75C270.138 248 283.937 242.284 294.111 232.111C304.284 221.937 310 208.138 310 193.75V54.25C310 39.862 304.284 26.0633 294.111 15.8895C283.937 5.71561 270.138 0 255.75 0ZM15.5 54.25C15.5 43.9729 19.5826 34.1166 26.8496 26.8496C34.1166 19.5826 43.9729 15.5 54.25 15.5H255.75C266.027 15.5 275.883 19.5826 283.15 26.8496C290.417 34.1166 294.5 43.9729 294.5 54.25V182.978L222.502 110.748C221.778 110.029 220.92 109.461 219.975 109.075C219.031 108.69 218.02 108.494 217 108.5C215.98 108.494 214.969 108.69 214.025 109.075C213.08 109.461 212.222 110.029 211.498 110.748L131.75 190.573L83.0025 141.748C82.282 141.021 81.4249 140.445 80.4805 140.051C79.5361 139.658 78.5231 139.455 77.5 139.455C76.4769 139.455 75.4639 139.658 74.5195 140.051C73.5751 140.445 72.718 141.021 71.9975 141.748L15.8875 197.857C15.6817 196.497 15.5523 195.125 15.5 193.75V54.25ZM255.75 232.5H54.25C47.6836 232.479 41.2304 230.789 35.4961 227.59C29.7618 224.391 24.9345 219.786 21.4675 214.21L77.5 158.177L126.248 207.002C126.968 207.729 127.825 208.305 128.77 208.699C129.714 209.092 130.727 209.295 131.75 209.295C132.773 209.295 133.786 209.092 134.73 208.699C135.675 208.305 136.532 207.729 137.252 207.002L217 127.255L293.105 203.515C290.95 211.791 286.117 219.122 279.361 224.365C272.604 229.608 264.302 232.468 255.75 232.5Z" fill="#909090"/>
<path d="M108.5 108.5C114.631 108.5 120.625 106.682 125.723 103.276C130.821 99.8693 134.794 95.0277 137.14 89.3632C139.487 83.6987 140.1 77.4656 138.904 71.4522C137.708 65.4388 134.756 59.9151 130.42 55.5797C126.085 51.2443 120.561 48.2918 114.548 47.0957C108.534 45.8995 102.301 46.5134 96.6368 48.8597C90.9723 51.2061 86.1308 55.1794 82.7244 60.2773C79.3181 65.3753 77.5 71.3688 77.5 77.5C77.5 85.7217 80.7661 93.6067 86.5797 99.4203C92.3933 105.234 100.278 108.5 108.5 108.5ZM108.5 62C111.566 62 114.562 62.9091 117.111 64.6122C119.66 66.3154 121.647 68.7362 122.82 71.5684C123.993 74.4007 124.3 77.5172 123.702 80.5239C123.104 83.5306 121.628 86.2925 119.46 88.4602C117.292 90.6279 114.531 92.1041 111.524 92.7022C108.517 93.3003 105.401 92.9933 102.568 91.8202C99.7361 90.647 97.3154 88.6603 95.6122 86.1114C93.9091 83.5624 93 80.5656 93 77.5C93 73.3892 94.633 69.4467 97.5398 66.5399C100.447 63.6331 104.389 62 108.5 62Z" fill="#909090"/>
</svg>
