<svg width="26" height="26" viewBox="0 0 26 26" fill="none" xmlns="http://www.w3.org/2000/svg">
<path d="M13.012 0.0136719C13.9843 0.013731 14.9232 0.367885 15.6533 1.00992L15.8458 1.19117L16.7183 2.06367C16.9577 2.30156 17.2704 2.45174 17.6058 2.48992L17.7745 2.49992H19.0245C20.0461 2.49986 21.0289 2.89063 21.7715 3.5921C22.5141 4.29356 22.9602 5.25255 23.0183 6.27242L23.0245 6.49992V7.74992C23.0245 8.08742 23.1395 8.41617 23.347 8.67867L23.4595 8.80367L24.3308 9.67617C25.0529 10.3942 25.474 11.3607 25.5082 12.3785C25.5423 13.3963 25.1869 14.3888 24.5145 15.1537L24.3333 15.3462L23.4608 16.2187C23.2229 16.4581 23.0727 16.7708 23.0345 17.1062L23.0245 17.2749V18.5249C23.0246 19.5464 22.6338 20.5293 21.9324 21.2719C21.2309 22.0145 20.2719 22.4606 19.252 22.5187L19.0245 22.5249H17.7745C17.4375 22.525 17.1103 22.6386 16.8458 22.8474L16.7208 22.9599L15.8483 23.8312C15.1302 24.5533 14.1638 24.9744 13.146 25.0085C12.1281 25.0427 11.1356 24.6873 10.3708 24.0149L10.1783 23.8337L9.30579 22.9612C9.06634 22.7233 8.75365 22.5731 8.41829 22.5349L8.24954 22.5249H6.99954C5.97802 22.525 4.99518 22.1342 4.25258 21.4327C3.50998 20.7313 3.06389 19.7723 3.00579 18.7524L2.99954 18.5249V17.2749C2.99943 16.9379 2.88582 16.6107 2.67704 16.3462L2.56454 16.2212L1.69329 15.3487C0.97114 14.6306 0.550067 13.6641 0.515923 12.6463C0.481779 11.6285 0.837136 10.636 1.50954 9.87117L1.69079 9.67867L2.56329 8.80617C2.80118 8.56672 2.95135 8.25404 2.98954 7.91867L2.99954 7.74992V6.49992L3.00579 6.27242C3.0616 5.29173 3.47632 4.36586 4.1709 3.67128C4.86548 2.9767 5.79134 2.56199 6.77204 2.50617L6.99954 2.49992H8.24954C8.58656 2.49981 8.91372 2.38621 9.17829 2.17742L9.30329 2.06492L10.1758 1.19367C10.5475 0.819783 10.9894 0.523054 11.4761 0.320546C11.9629 0.118039 12.4848 0.0137482 13.012 0.0136719ZM17.6333 9.11617C17.3989 8.88183 17.081 8.75019 16.7495 8.75019C16.4181 8.75019 16.1002 8.88183 15.8658 9.11617L11.7495 13.2312L10.1333 11.6162L10.0158 11.5124C9.76455 11.3182 9.44878 11.2268 9.13263 11.2569C8.81648 11.287 8.52364 11.4364 8.3136 11.6746C8.10356 11.9128 7.99206 12.222 8.00175 12.5394C8.01145 12.8569 8.1416 13.1587 8.36579 13.3837L10.8658 15.8837L10.9833 15.9874C11.2238 16.174 11.5241 16.2664 11.8279 16.2473C12.1317 16.2282 12.418 16.0989 12.6333 15.8837L17.6333 10.8837L17.737 10.7662C17.9236 10.5257 18.016 10.2254 17.9969 9.92157C17.9778 9.61779 17.8485 9.33141 17.6333 9.11617Z" fill="#FEC20E"/>
</svg>
