<svg width="38" height="38" viewBox="0 0 38 38" fill="none" xmlns="http://www.w3.org/2000/svg">
<path d="M9.39418 18.1555L9.36816 19.8438L11.535 21.9893L12.8906 21.771L13.5315 20.7915L10.9698 18.2551L9.39418 18.1555Z" fill="#D9E5FF"/>
<path d="M8.10697 23.4227L5.0479 19.4236L0.0146484 19.2995L2.87265 15.1544L1.43542 10.329L6.26083 11.7663L10.4059 8.9082L10.5301 13.9416L14.5292 17.0007L9.78053 18.6742L8.10697 23.4227Z" fill="#FEC20E"/>
<path d="M27.0307 18.2553C26.2173 19.0606 25.2832 19.9852 24.4697 20.7905L24.9152 21.9878H26.4665C27.2237 21.2383 27.8748 20.5938 28.6319 19.8442L28.7625 18.1492L27.0307 18.2553Z" fill="#BED5FF"/>
<path d="M36.5645 10.329C35.2565 10.7186 32.509 11.5369 31.739 11.7663C30.6156 10.9916 28.2554 9.36425 27.594 8.9082C27.5789 9.51952 27.4849 13.3281 27.4698 13.9416C26.9841 14.3131 23.9582 16.6278 23.4707 17.0006C24.0474 17.2038 27.6405 18.4702 28.2193 18.6741C28.4225 19.2508 29.6888 22.844 29.8928 23.4227C30.2643 22.9371 32.5789 19.9111 32.9518 19.4236C33.5631 19.4085 37.3717 19.3146 37.9852 19.2995C37.2104 18.176 35.5832 15.8159 35.1271 15.1544C35.3017 14.5683 36.3893 10.9171 36.5645 10.329Z" fill="#FEC20E"/>
<path d="M18.4519 17.6479L17.8722 18.1874C16.5331 18.9908 12.9486 21.1413 11.5352 21.9893C11.8936 22.5958 14.1286 26.3781 14.4887 26.9874V32.3606L16.7444 33.1125L19.0002 32.3606L19.7521 26.4395L19.0002 18.1875L18.4519 17.6479Z" fill="#FFDA2D"/>
<path d="M23.5116 26.9872C23.8687 26.3829 26.1071 22.596 26.4666 21.9877C24.9927 21.1039 21.2964 18.8875 20.1283 18.187L19.5232 17.7417L19 18.1874V32.3604L21.2558 33.1124L23.5116 32.3604C23.5116 31.7105 23.5116 27.6415 23.5116 26.9872Z" fill="#FDBF00"/>
<path d="M18.436 11.3199L17.8721 12.3418V18.1875H19L19.7519 14.6562L19 11.8017C18.9903 11.7936 18.4283 11.3133 18.436 11.3199Z" fill="#ECF2FF"/>
<path d="M20.1279 12.342L19.5639 11.3201L19 11.802V18.1877H20.1279C20.1279 16.3295 20.1279 14.2002 20.1279 12.342Z" fill="#D9E5FF"/>
<path d="M19 0C18.709 0.537854 16.8963 3.88867 16.6043 4.4284C15.2649 4.67451 12.4455 5.19266 11.6523 5.33846C12.0739 5.78142 14.7006 8.54084 15.1237 8.98531C14.9438 10.3352 14.5654 13.1767 14.4589 13.9761C15.0105 13.7121 18.4465 12.0667 19.0001 11.8017L19.752 7.40468L19 0Z" fill="#FFDA2D"/>
<path d="M22.8764 8.98531C23.298 8.54235 25.9246 5.78292 26.3477 5.33846C25.0084 5.09235 22.1888 4.57412 21.3957 4.4284C21.1064 3.89386 19.2902 0.536425 19 0V11.8017C19.5493 12.0647 22.99 13.7122 23.5412 13.9762C23.3609 12.6234 22.9824 9.78167 22.8764 8.98531Z" fill="#FDBF00"/>
<path d="M19.7516 34.2028L18.9997 32.3606C18.1809 32.3606 13.0564 32.3606 12.2323 32.3606C12.2323 34.2263 10.7145 35.7443 8.84863 35.7443L14.9204 36.4962L18.9997 35.7443L19.7516 34.2028Z" fill="#003566"/>
<path d="M6.59375 37.9999H19.0006L19.7525 36.872L19.0006 35.7441C15.1724 35.7441 10.4517 35.7441 6.59375 35.7441V37.9999Z" fill="#003566"/>
<path d="M25.7673 32.3606C24.9486 32.3606 19.8242 32.3606 19 32.3606V35.7443L23.286 36.4962L29.151 35.7443C27.2853 35.7443 25.7673 34.2265 25.7673 32.3606Z" fill="#002A52"/>
<path d="M31.4068 37.9999C31.4068 37.211 31.4068 36.5331 31.4068 35.7441C29.9504 35.7441 22.6062 35.7441 19 35.7441V37.9999H31.4068Z" fill="#002A52"/>
</svg>
