<svg width="24" height="24" viewBox="0 0 24 24" fill="none" xmlns="http://www.w3.org/2000/svg">
<g clip-path="url(#clip0_368_10381)">
<path d="M11.9998 3.00012C14.3357 5.0667 17.3843 6.14269 20.4998 6.00012C20.9534 7.54314 21.0922 9.16159 20.908 10.7593C20.7237 12.357 20.2202 13.9014 19.4272 15.3007C18.6343 16.6999 17.5682 17.9255 16.2923 18.9046C15.0164 19.8837 13.5566 20.5963 11.9998 21.0001C10.443 20.5963 8.98331 19.8837 7.70738 18.9046C6.43144 17.9255 5.36534 16.6999 4.57243 15.3007C3.77952 13.9014 3.27597 12.357 3.09171 10.7593C2.90745 9.16159 3.04624 7.54314 3.49983 6.00012C6.61536 6.14269 9.664 5.0667 11.9998 3.00012Z" stroke="white" stroke-width="1.5" stroke-linecap="round" stroke-linejoin="round"/>
</g>
<defs>
<clipPath id="clip0_368_10381">
<rect width="24" height="24" fill="white"/>
</clipPath>
</defs>
</svg>
