<svg width="40" height="40" viewBox="0 0 40 40" fill="none" xmlns="http://www.w3.org/2000/svg">
<g clip-path="url(#clip0_50_329)">
<path d="M7.73535 33.5936L10.25 36.2425L19.3918 27.5634L16.7393 25.045L7.73535 33.5936Z" fill="#003566"/>
<path d="M38.398 6.99936C35.832 4.2967 31.0481 4.67272 27.9939 7.57186C26.1372 9.33577 25.3266 11.765 25.3205 13.8011C25.3156 15.5894 25.1716 16.8211 23.7837 18.358L21.9648 20.0852L24.6162 22.6035L26.2984 21.0056C27.9036 19.6994 29.1426 19.6189 30.9273 19.7068C32.9609 19.8057 35.4305 19.1233 37.2884 17.3594C40.3401 14.4603 40.9651 9.70202 38.398 6.99936Z" fill="#003566"/>
<path d="M17.1506 14.8485C17.3251 12.9345 17.2348 11.5892 14.4528 8.96722C14.4528 8.96722 11.2656 5.94112 9.46259 4.22847C7.95501 2.79776 5.81509 4.94745 7.35689 6.41229L12.5852 11.3745C12.9185 11.6919 12.9319 12.2192 12.6157 12.5525L12.4619 12.7148C12.1457 13.0481 11.6171 13.0615 11.2839 12.7441L6.03243 7.75987C5.17064 6.94081 4.36251 7.27644 3.83517 7.8319C3.30782 8.38854 3.01486 9.21128 3.87665 10.0304L9.12814 15.0158C9.46259 15.332 9.47486 15.8606 9.15868 16.1938L9.00486 16.355C8.68743 16.6894 8.16009 16.7028 7.82689 16.3867L2.59986 11.4233C1.05689 9.95847 -0.978036 12.207 0.529542 13.6364C2.33251 15.3503 5.51978 18.3764 5.51978 18.3764C8.2822 21.0192 9.62986 21.04 11.533 20.7653C13.0649 20.5444 14.1795 20.1696 15.9056 21.8103L31.107 36.2426L33.6217 33.5949L18.4202 19.1613C16.6928 17.5218 17.0102 16.3903 17.1506 14.8485Z" fill="#FEC20E"/>
</g>
<defs>
<clipPath id="clip0_50_329">
<rect width="40" height="40" fill="white"/>
</clipPath>
</defs>
</svg>
