<svg width="18" height="17" viewBox="0 0 18 17" fill="none" xmlns="http://www.w3.org/2000/svg">
<path d="M15.6706 9.04121L9.0074 16L2.34419 9.04121C1.90469 8.59023 1.5585 8.04818 1.32743 7.44919C1.09635 6.8502 0.985392 6.20725 1.00154 5.56082C1.01769 4.91439 1.16059 4.27848 1.42125 3.69315C1.68191 3.10782 2.05468 2.58574 2.51609 2.15979C2.97749 1.73383 3.51754 1.41323 4.10222 1.21818C4.6869 1.02312 5.30355 0.957834 5.91333 1.02643C6.52312 1.09502 7.11283 1.29601 7.64533 1.61673C8.17783 1.93745 8.64159 2.37097 9.0074 2.88997C9.3748 2.37473 9.83909 1.94501 10.3712 1.62769C10.9034 1.31037 11.4919 1.11229 12.1 1.04584C12.708 0.979388 13.3226 1.046 13.9051 1.24151C14.4876 1.43703 15.0256 1.75722 15.4854 2.18207C15.9452 2.60691 16.3169 3.12726 16.5772 3.71054C16.8375 4.29382 16.9808 4.92747 16.9982 5.57185C17.0156 6.21623 16.9067 6.85745 16.6782 7.45539C16.4498 8.05333 16.1068 8.59511 15.6706 9.04683" fill="#F87171"/>
<path d="M15.6706 9.04121L9.0074 16L2.34419 9.04121C1.90469 8.59023 1.5585 8.04818 1.32743 7.44919C1.09635 6.8502 0.985392 6.20725 1.00154 5.56082C1.01769 4.91439 1.16059 4.27848 1.42125 3.69315C1.68191 3.10782 2.05468 2.58574 2.51609 2.15979C2.97749 1.73383 3.51754 1.41323 4.10222 1.21818C4.6869 1.02312 5.30355 0.957834 5.91333 1.02643C6.52312 1.09502 7.11283 1.29601 7.64533 1.61673C8.17783 1.93745 8.64159 2.37097 9.0074 2.88997C9.3748 2.37474 9.83909 1.94501 10.3712 1.62769C10.9034 1.31037 11.4919 1.11229 12.1 1.04584C12.708 0.979388 13.3226 1.046 13.9051 1.24151C14.4876 1.43703 15.0256 1.75722 15.4854 2.18207C15.9452 2.60691 16.3169 3.12726 16.5772 3.71054C16.8375 4.29382 16.9808 4.92747 16.9982 5.57185C17.0156 6.21623 16.9067 6.85745 16.6782 7.45539C16.4498 8.05333 16.1068 8.59511 15.6706 9.04683" stroke="#F87171" stroke-linecap="round" stroke-linejoin="round"/>
</svg>
