<svg width="24" height="24" viewBox="0 0 24 24" fill="none" xmlns="http://www.w3.org/2000/svg">
<g clip-path="url(#clip0_292_4888)">
<path d="M4 5.00024C4 5.26546 4.10536 5.51981 4.29289 5.70735C4.48043 5.89489 4.73478 6.00024 5 6.00024C5.26522 6.00024 5.51957 5.89489 5.70711 5.70735C5.89464 5.51981 6 5.26546 6 5.00024C6 4.73503 5.89464 4.48067 5.70711 4.29314C5.51957 4.1056 5.26522 4.00024 5 4.00024C4.73478 4.00024 4.48043 4.1056 4.29289 4.29314C4.10536 4.48067 4 4.73503 4 5.00024Z" stroke="#003566" stroke-width="1.5" stroke-linecap="round" stroke-linejoin="round"/>
<path d="M11 5.00024C11 5.26546 11.1054 5.51981 11.2929 5.70735C11.4804 5.89489 11.7348 6.00024 12 6.00024C12.2652 6.00024 12.5196 5.89489 12.7071 5.70735C12.8946 5.51981 13 5.26546 13 5.00024C13 4.73503 12.8946 4.48067 12.7071 4.29314C12.5196 4.1056 12.2652 4.00024 12 4.00024C11.7348 4.00024 11.4804 4.1056 11.2929 4.29314C11.1054 4.48067 11 4.73503 11 5.00024Z" stroke="#003566" stroke-width="1.5" stroke-linecap="round" stroke-linejoin="round"/>
<path d="M18 5.00024C18 5.26546 18.1054 5.51981 18.2929 5.70735C18.4804 5.89489 18.7348 6.00024 19 6.00024C19.2652 6.00024 19.5196 5.89489 19.7071 5.70735C19.8946 5.51981 20 5.26546 20 5.00024C20 4.73503 19.8946 4.48067 19.7071 4.29314C19.5196 4.1056 19.2652 4.00024 19 4.00024C18.7348 4.00024 18.4804 4.1056 18.2929 4.29314C18.1054 4.48067 18 4.73503 18 5.00024Z" stroke="#003566" stroke-width="1.5" stroke-linecap="round" stroke-linejoin="round"/>
<path d="M4 12.0002C4 12.2655 4.10536 12.5198 4.29289 12.7074C4.48043 12.8949 4.73478 13.0002 5 13.0002C5.26522 13.0002 5.51957 12.8949 5.70711 12.7074C5.89464 12.5198 6 12.2655 6 12.0002C6 11.735 5.89464 11.4807 5.70711 11.2931C5.51957 11.1056 5.26522 11.0002 5 11.0002C4.73478 11.0002 4.48043 11.1056 4.29289 11.2931C4.10536 11.4807 4 11.735 4 12.0002Z" stroke="#003566" stroke-width="1.5" stroke-linecap="round" stroke-linejoin="round"/>
<path d="M11 12.0002C11 12.2655 11.1054 12.5198 11.2929 12.7074C11.4804 12.8949 11.7348 13.0002 12 13.0002C12.2652 13.0002 12.5196 12.8949 12.7071 12.7074C12.8946 12.5198 13 12.2655 13 12.0002C13 11.735 12.8946 11.4807 12.7071 11.2931C12.5196 11.1056 12.2652 11.0002 12 11.0002C11.7348 11.0002 11.4804 11.1056 11.2929 11.2931C11.1054 11.4807 11 11.735 11 12.0002Z" stroke="#003566" stroke-width="1.5" stroke-linecap="round" stroke-linejoin="round"/>
<path d="M18 12.0002C18 12.2655 18.1054 12.5198 18.2929 12.7074C18.4804 12.8949 18.7348 13.0002 19 13.0002C19.2652 13.0002 19.5196 12.8949 19.7071 12.7074C19.8946 12.5198 20 12.2655 20 12.0002C20 11.735 19.8946 11.4807 19.7071 11.2931C19.5196 11.1056 19.2652 11.0002 19 11.0002C18.7348 11.0002 18.4804 11.1056 18.2929 11.2931C18.1054 11.4807 18 11.735 18 12.0002Z" stroke="#003566" stroke-width="1.5" stroke-linecap="round" stroke-linejoin="round"/>
<path d="M4 19.0002C4 19.2655 4.10536 19.5198 4.29289 19.7074C4.48043 19.8949 4.73478 20.0002 5 20.0002C5.26522 20.0002 5.51957 19.8949 5.70711 19.7074C5.89464 19.5198 6 19.2655 6 19.0002C6 18.735 5.89464 18.4807 5.70711 18.2931C5.51957 18.1056 5.26522 18.0002 5 18.0002C4.73478 18.0002 4.48043 18.1056 4.29289 18.2931C4.10536 18.4807 4 18.735 4 19.0002Z" stroke="#003566" stroke-width="1.5" stroke-linecap="round" stroke-linejoin="round"/>
<path d="M11 19.0002C11 19.2655 11.1054 19.5198 11.2929 19.7074C11.4804 19.8949 11.7348 20.0002 12 20.0002C12.2652 20.0002 12.5196 19.8949 12.7071 19.7074C12.8946 19.5198 13 19.2655 13 19.0002C13 18.735 12.8946 18.4807 12.7071 18.2931C12.5196 18.1056 12.2652 18.0002 12 18.0002C11.7348 18.0002 11.4804 18.1056 11.2929 18.2931C11.1054 18.4807 11 18.735 11 19.0002Z" stroke="#003566" stroke-width="1.5" stroke-linecap="round" stroke-linejoin="round"/>
<path d="M18 19.0002C18 19.2655 18.1054 19.5198 18.2929 19.7074C18.4804 19.8949 18.7348 20.0002 19 20.0002C19.2652 20.0002 19.5196 19.8949 19.7071 19.7074C19.8946 19.5198 20 19.2655 20 19.0002C20 18.735 19.8946 18.4807 19.7071 18.2931C19.5196 18.1056 19.2652 18.0002 19 18.0002C18.7348 18.0002 18.4804 18.1056 18.2929 18.2931C18.1054 18.4807 18 18.735 18 19.0002Z" stroke="#003566" stroke-width="1.5" stroke-linecap="round" stroke-linejoin="round"/>
</g>
<defs>
<clipPath id="clip0_292_4888">
<rect width="24" height="24" fill="white" transform="translate(0 0.000244141)"/>
</clipPath>
</defs>
</svg>
