<svg width="28" height="28" viewBox="0 0 28 28" fill="none" xmlns="http://www.w3.org/2000/svg">
<path d="M23.4997 13.4166C23.4997 18.9855 18.9852 23.4999 13.4163 23.4999C7.84746 23.4999 3.33301 18.9855 3.33301 13.4166C3.33301 7.84771 7.84746 3.33325 13.4163 3.33325C18.9852 3.33325 23.4997 7.84771 23.4997 13.4166Z" stroke="#1C1917" stroke-width="2"/>
<mask id="path-2-inside-1_4_1099" fill="white">
<path d="M24.851 25.6649C24.641 25.6649 24.431 25.5833 24.2793 25.4316L22.1093 23.2616C21.7943 22.9466 21.7943 22.4333 22.1093 22.1066C22.4243 21.7916 22.9376 21.7916 23.2643 22.1066L25.4343 24.2766C25.7493 24.5916 25.7493 25.1049 25.4343 25.4316C25.271 25.5833 25.061 25.6649 24.851 25.6649Z"/>
</mask>
<path d="M24.851 25.6649C24.641 25.6649 24.431 25.5833 24.2793 25.4316L22.1093 23.2616C21.7943 22.9466 21.7943 22.4333 22.1093 22.1066C22.4243 21.7916 22.9376 21.7916 23.2643 22.1066L25.4343 24.2766C25.7493 24.5916 25.7493 25.1049 25.4343 25.4316C25.271 25.5833 25.061 25.6649 24.851 25.6649Z" fill="#A8A29E"/>
<path d="M24.2793 25.4316L0.70907 49.0018L24.2793 25.4316ZM22.1093 23.2616L45.6795 -0.308615L22.1093 23.2616ZM22.1093 22.1066L-1.46093 -1.46361L-1.67518 -1.24936L-1.88551 -1.03124L22.1093 22.1066ZM23.2643 22.1066L46.8345 -1.46363L46.6203 -1.67788L46.4021 -1.8882L23.2643 22.1066ZM25.4343 24.2766L49.0045 0.706385L49.0045 0.706373L25.4343 24.2766ZM25.4343 25.4316L48.116 49.8581L48.7903 49.2319L49.4291 48.5695L25.4343 25.4316ZM24.851 -7.66839C33.0133 -7.66839 41.4265 -4.56165 47.8495 1.86139L0.70907 49.0018C7.43544 55.7282 16.2687 58.9983 24.851 58.9983V-7.66839ZM47.8495 1.86139L45.6795 -0.308615L-1.46093 46.8318L0.70907 49.0018L47.8495 1.86139ZM45.6795 -0.308615C58.6135 12.6253 58.009 32.8987 46.1041 45.2445L-1.88551 -1.03124C-14.4204 11.9679 -15.0249 33.2679 -1.46093 46.8318L45.6795 -0.308615ZM45.6795 45.6768C32.7456 58.6108 12.4722 58.0063 0.126444 46.1014L46.4021 -1.8882C33.403 -14.4231 12.103 -15.0276 -1.46093 -1.46361L45.6795 45.6768ZM-0.305916 45.6768L1.86408 47.8468L49.0045 0.706373L46.8345 -1.46363L-0.305916 45.6768ZM1.86407 47.8468C-11.0699 34.9129 -10.4654 14.6396 1.43949 2.29376L49.4291 48.5695C61.964 35.5703 62.5685 14.2703 49.0045 0.706385L1.86407 47.8468ZM2.7526 1.00516C8.62183 -4.44485 16.4676 -7.66839 24.851 -7.66839V58.9983C33.6544 58.9983 41.9201 55.6114 48.116 49.8581L2.7526 1.00516Z" fill="#1C1917" mask="url(#path-2-inside-1_4_1099)"/>
</svg>
