<svg width="28" height="28" viewBox="0 0 28 28" fill="none" xmlns="http://www.w3.org/2000/svg">
<g clip-path="url(#clip0_51_1328)">
<path d="M3.5 12.8333C3.5 14.059 3.74141 15.2727 4.21046 16.405C4.6795 17.5374 5.36699 18.5663 6.23367 19.433C7.10035 20.2997 8.12925 20.9872 9.26162 21.4562C10.394 21.9253 11.6077 22.1667 12.8333 22.1667C14.059 22.1667 15.2727 21.9253 16.405 21.4562C17.5374 20.9872 18.5663 20.2997 19.433 19.433C20.2997 18.5663 20.9872 17.5374 21.4562 16.405C21.9253 15.2727 22.1667 14.059 22.1667 12.8333C22.1667 11.6077 21.9253 10.394 21.4562 9.26162C20.9872 8.12925 20.2997 7.10035 19.433 6.23367C18.5663 5.36699 17.5374 4.6795 16.405 4.21046C15.2727 3.74141 14.059 3.5 12.8333 3.5C11.6077 3.5 10.394 3.74141 9.26162 4.21046C8.12925 4.6795 7.10035 5.36699 6.23367 6.23367C5.36699 7.10035 4.6795 8.12925 4.21046 9.26162C3.74141 10.394 3.5 11.6077 3.5 12.8333Z" stroke="#FEC200" stroke-width="2" stroke-linecap="round" stroke-linejoin="round"/>
<path d="M24.5007 24.4997L19.834 19.833" stroke="#FEC200" stroke-width="2" stroke-linecap="round" stroke-linejoin="round"/>
</g>
<defs>
<clipPath id="clip0_51_1328">
<rect width="28" height="28" fill="white"/>
</clipPath>
</defs>
</svg>
