<svg width="22" height="22" viewBox="0 0 22 22" fill="none" xmlns="http://www.w3.org/2000/svg">
<g clip-path="url(#clip0_540_1959)">
<path d="M7.33301 8.25H6.41634C5.93011 8.25 5.4638 8.44315 5.11998 8.78697C4.77616 9.13079 4.58301 9.5971 4.58301 10.0833V17.4167C4.58301 17.9029 4.77616 18.3692 5.11998 18.713C5.4638 19.0568 5.93011 19.25 6.41634 19.25H15.583C16.0692 19.25 16.5356 19.0568 16.8794 18.713C17.2232 18.3692 17.4163 17.9029 17.4163 17.4167V10.0833C17.4163 9.5971 17.2232 9.13079 16.8794 8.78697C16.5356 8.44315 16.0692 8.25 15.583 8.25H14.6663" stroke="#1C1917" stroke-width="1.5" stroke-linecap="round" stroke-linejoin="round"/>
<path d="M11 12.8333V2.75" stroke="#1C1917" stroke-width="1.5" stroke-linecap="round" stroke-linejoin="round"/>
<path d="M8.25 5.5L11 2.75L13.75 5.5" stroke="#1C1917" stroke-width="1.5" stroke-linecap="round" stroke-linejoin="round"/>
</g>
<defs>
<clipPath id="clip0_540_1959">
<rect width="22" height="22" fill="white"/>
</clipPath>
</defs>
</svg>
