<svg width="24" height="38" viewBox="0 0 24 38" fill="none" xmlns="http://www.w3.org/2000/svg">
<path d="M10.1695 18.0491C5.50386 18.91 1.94043 23.0091 1.94043 27.9411C1.94043 33.4877 6.45282 38 11.9993 38L12.7444 27.9411L11.9993 19L10.1695 18.0491Z" fill="#FFDA2D"/>
<path d="M12 19V38C17.5465 38 22.0588 33.4877 22.0588 27.9411C22.0588 23.0193 18.5056 18.9118 13.8297 18.0491L12 19Z" fill="#FEC20E"/>
<path d="M8.64647 0L7.90137 4.47059L8.64647 12.2941L10.3229 13.0392L11.9994 12.2941L12.7445 4.47059L11.9994 0C10.9335 0 9.71233 0 8.64647 0Z" fill="#003566"/>
<path d="M15.3529 0C14.2871 0 13.0659 0 12 0V12.2941L13.6765 13.0392L15.3529 12.2941L16.098 4.47059L15.3529 0Z" fill="#002A52"/>
<path d="M3.05859 0V12.2941L5.71614 13.0392L8.64683 12.2941V0H3.05859Z" fill="#95E02A"/>
<path d="M20.9408 12.2941C20.9408 11.9527 20.9408 0.355114 20.9408 0C19.4361 0 16.2291 0 15.3525 0V12.2941L18.1467 13.0392L20.9408 12.2941Z" fill="#54C466"/>
<path d="M0.823242 12.2942V14.5295H11.9997L12.7448 13.4118L11.9997 12.2942C11.2451 12.2942 1.57795 12.2942 0.823242 12.2942Z" fill="#FFDA2D"/>
<path d="M23.1765 12.2942C22.4218 12.2942 12.7548 12.2942 12 12.2942V14.5295H23.1765C23.1765 13.7477 23.1765 13.0759 23.1765 12.2942Z" fill="#FEC20E"/>
<path d="M9.76465 16.7646C9.76465 17.9991 10.7655 18.9999 11.9999 18.9999L13.1176 16.7646L11.9999 14.5293C10.7655 14.5293 9.76465 15.5301 9.76465 16.7646Z" fill="#FEC20E"/>
<path d="M14.2353 16.7646C14.2353 15.5301 13.2345 14.5293 12 14.5293V18.9999C13.2345 18.9999 14.2353 17.9991 14.2353 16.7646Z" fill="#FF9F22"/>
<path d="M6.41113 27.9413C6.41113 31.0226 8.91802 33.5295 11.9994 33.5295L13.117 27.9413L11.9994 22.353C8.91802 22.353 6.41113 24.8599 6.41113 27.9413Z" fill="#FF9F22"/>
<path d="M12 22.353V33.5295C15.0814 33.5295 17.5882 31.0226 17.5882 27.9413C17.5882 24.8599 15.0814 22.353 12 22.353Z" fill="#FF7037"/>
</svg>
