<svg width="12" height="11" viewBox="0 0 12 11" fill="none" xmlns="http://www.w3.org/2000/svg">
<path d="M3.95215 3.32091L0.467731 3.80558L0.406016 3.81763C0.312592 3.84143 0.227423 3.88858 0.159208 3.95429C0.0909924 4.01999 0.0421745 4.10188 0.0177391 4.19161C-0.00669627 4.28133 -0.00587353 4.37567 0.0201233 4.46498C0.0461201 4.5543 0.0963594 4.6354 0.165711 4.7L2.69 7.05734L2.0947 10.3872L2.0876 10.4448C2.08189 10.5375 2.10195 10.63 2.14574 10.7128C2.18953 10.7956 2.25548 10.8658 2.33683 10.9161C2.41818 10.9665 2.51201 10.9951 2.60871 10.9992C2.70541 11.0033 2.80151 10.9827 2.88716 10.9394L6.00348 9.36753L9.1127 10.9394L9.16731 10.9635C9.25746 10.9976 9.35543 11.0081 9.45118 10.9938C9.54692 10.9796 9.63699 10.9411 9.71215 10.8825C9.7873 10.8238 9.84484 10.747 9.87885 10.66C9.91287 10.5729 9.92213 10.4788 9.9057 10.3872L9.30986 7.05734L11.8352 4.69948L11.8778 4.65494C11.9387 4.58303 11.9786 4.49694 11.9935 4.40542C12.0084 4.31391 11.9977 4.22024 11.9625 4.13397C11.9274 4.0477 11.8691 3.97191 11.7935 3.91431C11.7178 3.85672 11.6277 3.81938 11.5321 3.80611L8.04771 3.32091L6.4901 0.29236C6.44503 0.204613 6.37525 0.130722 6.28867 0.0790535C6.20209 0.0273845 6.10217 0 6.0002 0C5.89824 0 5.79832 0.0273845 5.71174 0.0790535C5.62516 0.130722 5.55538 0.204613 5.51031 0.29236L3.95215 3.32091Z" fill="#1C1917"/>
</svg>
