<svg width="30" height="29" viewBox="0 0 30 29" fill="none" xmlns="http://www.w3.org/2000/svg">
<g clip-path="url(#clip0_240_4576)">
<path d="M23.0352 14.575L23.4289 16.2662L26.4733 16.8299L29.5178 16.2662C29.5178 15.857 29.5178 13.2957 29.5178 12.8838L26.4733 12.3201L23.4289 12.8838L23.0352 14.575Z" fill="#D9E5FF"/>
<path d="M7.25045 14.575L6.8568 12.8838L3.81219 12.3201L0.767578 12.8838L0.767578 16.2662L3.67063 16.8299L6.8568 16.2662L7.25045 14.575Z" fill="#ECF2FF"/>
<path d="M6.8568 12.8838L0.767578 12.8838L2.78174 8.65576L9.11032 8.65576L6.8568 12.8838Z" fill="#7ED8F6"/>
<path d="M9.11032 20.4941L2.78174 20.4941L0.767578 16.2661L6.8568 16.2661L9.11032 20.4941Z" fill="#7ED8F6"/>
<path d="M21.1753 8.65576L27.5035 8.65576C27.7485 9.17011 29.2722 12.3686 29.5176 12.8838C28.7785 12.8838 24.1696 12.8838 23.4288 12.8838L21.1753 8.65576Z" fill="#4895FF"/>
<path d="M23.4288 16.2661L29.5176 16.2661C29.2726 16.7805 27.7489 19.9789 27.5035 20.4941C26.7351 20.4941 21.9454 20.4941 21.1753 20.4941L23.4288 16.2661Z" fill="#4895FF"/>
<path d="M9.16627 20.5514C10.6974 22.0825 12.8114 23.0308 15.1427 23.0309L15.7064 14.5749L15.1427 6.1189C12.8114 6.11895 10.6974 7.06726 9.16627 8.59842C5.86099 11.9038 5.8589 17.2439 9.16627 20.5514Z" fill="#FFDA2D"/>
<path d="M23.5987 14.5749C23.5987 9.91226 19.8054 6.1189 15.1427 6.1189H15.1426L15.1426 23.0309H15.1427C19.8053 23.0309 23.5987 19.2376 23.5987 14.5749Z" fill="#FDBF00"/>
<path d="M13.3464 12.1717C12.8955 12.2546 10.0863 12.7708 9.63379 12.854C10.339 13.5949 11.8208 15.1517 12.2363 15.5882C12.1012 16.6023 11.8174 18.7327 11.7379 19.3298C12.6606 18.888 14.599 17.9599 15.1423 17.6998L15.9879 14.575L15.1423 8.85205C14.6557 9.75154 13.6331 11.6417 13.3464 12.1717Z" fill="#FF9F22"/>
<path d="M18.5472 19.3297C18.4122 18.3156 18.1284 16.1852 18.049 15.5881C18.365 15.256 20.3343 13.1872 20.6515 12.8539C19.6474 12.6694 17.5336 12.2809 16.9389 12.1716C16.7207 11.7684 15.3616 9.25621 15.1427 8.85156L15.1426 8.85173L15.1426 8.8519L15.1426 17.6996L15.1426 17.6996L15.1427 17.6995C15.5562 17.8976 18.1323 19.1311 18.5472 19.3297Z" fill="#FF7037"/>
</g>
<defs>
<clipPath id="clip0_240_4576">
<rect width="28.75" height="28.75" fill="white" transform="translate(0.767578 0.199951)"/>
</clipPath>
</defs>
</svg>
