<svg width="18" height="18" viewBox="0 0 18 18" fill="none" xmlns="http://www.w3.org/2000/svg">
<path fill-rule="evenodd" clip-rule="evenodd" d="M8.95249 0.0417482H9.04816C10.9718 0.0417398 12.4793 0.0417315 13.6556 0.199873C14.8595 0.36174 15.8096 0.699523 16.5552 1.4452C17.3009 2.19087 17.6387 3.14089 17.8006 4.34484C17.9587 5.52107 17.9587 7.02861 17.9587 8.95225V11.5001C17.9587 15.0669 15.0672 17.9584 11.5003 17.9584H8.95249C7.02885 17.9584 5.52132 17.9584 4.34508 17.8003C3.14113 17.6384 2.19112 17.3007 1.44544 16.555C0.699767 15.8093 0.361984 14.8592 0.200117 13.6553C0.0419756 12.4791 0.041984 10.9716 0.0419923 9.04791V8.95225C0.041984 7.02861 0.0419756 5.52107 0.200117 4.34484C0.361984 3.14089 0.699767 2.19087 1.44544 1.4452C2.19112 0.699523 3.14113 0.36174 4.34508 0.199873C5.52132 0.0417315 7.02885 0.0417398 8.95249 0.0417482ZM4.51164 1.43872C3.4463 1.58196 2.80403 1.85436 2.32933 2.32908C1.85461 2.80379 1.5822 3.44606 1.43897 4.5114C1.29332 5.59471 1.29199 7.01822 1.29199 9.00008C1.29199 10.9819 1.29332 12.4054 1.43897 13.4887C1.5822 14.5541 1.85461 15.1963 2.32933 15.6711C2.80403 16.1458 3.4463 16.4182 4.51164 16.5614C5.59496 16.7071 7.01847 16.7084 9.00033 16.7084H10.8757C10.8785 15.5698 10.9032 14.8219 11.1098 14.1861C11.5838 12.7272 12.7275 11.5836 14.1863 11.1096C14.8222 10.903 15.5701 10.8782 16.7087 10.8754V9.00008C16.7087 7.01822 16.7073 5.59471 16.5617 4.5114C16.4185 3.44606 16.1461 2.80379 15.6713 2.32908C15.1966 1.85436 14.5543 1.58196 13.489 1.43872C12.4057 1.29307 10.9822 1.29175 9.00033 1.29175C7.01847 1.29175 5.59496 1.29307 4.51164 1.43872ZM16.6714 12.1262C15.5405 12.131 15.0054 12.1577 14.5726 12.2984C13.4943 12.6487 12.649 13.4941 12.2987 14.5723C12.158 15.0052 12.1312 15.5402 12.1264 16.6712C14.5024 16.3865 16.3867 14.5022 16.6714 12.1262Z" fill="#003566"/>
</svg>
