<svg width="57" height="24" viewBox="0 0 57 24" fill="none" xmlns="http://www.w3.org/2000/svg">
<path fill-rule="evenodd" clip-rule="evenodd" d="M56.9995 12.382C56.9995 8.47088 55.0362 5.38477 51.2837 5.38477C47.5154 5.38477 45.2354 8.47088 45.2354 12.3514C45.2354 16.9501 47.927 19.2723 51.7903 19.2723C53.6745 19.2723 55.0995 18.8598 56.1761 18.2792V15.2236C55.0994 15.7431 53.8645 16.0639 52.297 16.0639C50.7611 16.0639 49.3994 15.5444 49.2253 13.7416H56.9678C56.9679 13.543 56.9995 12.7486 56.9995 12.382ZM49.1779 10.9305C49.1779 9.20411 50.2704 8.48602 51.2679 8.48602C52.2337 8.48602 53.2629 9.20411 53.2629 10.9305H49.1779Z" fill="#635BFF"/>
<path fill-rule="evenodd" clip-rule="evenodd" d="M39.1246 5.38464C37.5729 5.38464 36.5754 6.08737 36.0212 6.57634L35.8154 5.62913H32.332V23.4431L36.2904 22.6333L36.3062 18.3098C36.8762 18.707 37.7153 19.2722 39.1086 19.2722C41.9428 19.2722 44.5237 17.0722 44.5237 12.2292C44.508 7.79853 41.8954 5.38464 39.1246 5.38464ZM38.1745 15.911C37.2403 15.911 36.6862 15.5902 36.3062 15.193L36.2904 9.52484C36.702 9.08175 37.272 8.77625 38.1745 8.77625C39.6154 8.77625 40.6129 10.3346 40.6129 12.336C40.613 14.3832 39.6312 15.911 38.1745 15.911Z" fill="#635BFF"/>
<path fill-rule="evenodd" clip-rule="evenodd" d="M26.8848 4.48322L30.8589 3.65825V0.556885L26.8848 1.3666V4.48322Z" fill="#635BFF"/>
<path d="M30.8589 5.64429H26.8848V19.0123H30.8589V5.64429Z" fill="#635BFF"/>
<path fill-rule="evenodd" clip-rule="evenodd" d="M22.6265 6.77488L22.3731 5.64431H18.9531V19.0123H22.9115V9.95262C23.8456 8.77618 25.4289 8.99016 25.9198 9.15816V5.64431C25.4131 5.46106 23.5606 5.12495 22.6265 6.77488Z" fill="#635BFF"/>
<path fill-rule="evenodd" clip-rule="evenodd" d="M14.7093 2.3291L10.8459 3.12356L10.8301 15.361C10.8301 17.6222 12.5875 19.2875 14.9309 19.2875C16.2293 19.2875 17.1792 19.0582 17.7018 18.7832V15.6819C17.1951 15.8805 14.6935 16.5832 14.6935 14.3222V8.89855H17.7018V5.64444H14.6935L14.7093 2.3291Z" fill="#635BFF"/>
<path fill-rule="evenodd" clip-rule="evenodd" d="M4.00588 9.52484C4.00588 8.929 4.51251 8.69988 5.35167 8.69988C6.55497 8.69988 8.07498 9.05124 9.27839 9.6777V6.08737C7.96421 5.58326 6.66585 5.38464 5.35167 5.38464C2.13753 5.38464 0 7.00407 0 9.70821C0 13.9249 6.01672 13.2527 6.01672 15.0707C6.01672 15.7735 5.3834 16.0027 4.4967 16.0027C3.18252 16.0027 1.50421 15.4832 0.174222 14.7805V18.4166C1.6467 19.0277 3.1351 19.2874 4.4967 19.2874C7.78999 19.2874 10.0542 17.7137 10.0542 14.9791C10.0384 10.4263 4.00588 11.236 4.00588 9.52484Z" fill="#635BFF"/>
</svg>
