<svg width="22" height="22" viewBox="0 0 22 22" fill="none" xmlns="http://www.w3.org/2000/svg">
<g clip-path="url(#clip0_206_6421)">
<path d="M2.75 16.5001C2.75 16.9863 2.94315 17.4526 3.28697 17.7964C3.63079 18.1403 4.0971 18.3334 4.58333 18.3334C5.06956 18.3334 5.53588 18.1403 5.8797 17.7964C6.22351 17.4526 6.41667 16.9863 6.41667 16.5001C6.41667 16.0139 6.22351 15.5475 5.8797 15.2037C5.53588 14.8599 5.06956 14.6667 4.58333 14.6667C4.0971 14.6667 3.63079 14.8599 3.28697 15.2037C2.94315 15.5475 2.75 16.0139 2.75 16.5001Z" stroke="black" stroke-width="1.5" stroke-linecap="round" stroke-linejoin="round"/>
<path d="M15.5833 5.50008C15.5833 5.98631 15.7764 6.45263 16.1202 6.79644C16.464 7.14026 16.9304 7.33341 17.4166 7.33341C17.9028 7.33341 18.3691 7.14026 18.7129 6.79644C19.0568 6.45263 19.2499 5.98631 19.2499 5.50008C19.2499 5.01385 19.0568 4.54754 18.7129 4.20372C18.3691 3.8599 17.9028 3.66675 17.4166 3.66675C16.9304 3.66675 16.464 3.8599 16.1202 4.20372C15.7764 4.54754 15.5833 5.01385 15.5833 5.50008Z" stroke="black" stroke-width="1.5" stroke-linecap="round" stroke-linejoin="round"/>
<path d="M17.4166 7.33325V11.9166C17.4166 13.1322 16.9337 14.2979 16.0742 15.1575C15.2146 16.017 14.0488 16.4999 12.8333 16.4999H10.0833M10.0833 16.4999L12.8333 13.7499M10.0833 16.4999L12.8333 19.2499" stroke="black" stroke-width="1.5" stroke-linecap="round" stroke-linejoin="round"/>
<path d="M4.58325 14.6667V10.0833C4.58325 8.86776 5.06614 7.70197 5.92568 6.84243C6.78522 5.98289 7.95101 5.5 9.16659 5.5H11.9166M11.9166 5.5L9.16659 2.75M11.9166 5.5L9.16659 8.25" stroke="black" stroke-width="1.5" stroke-linecap="round" stroke-linejoin="round"/>
</g>
<defs>
<clipPath id="clip0_206_6421">
<rect width="22" height="22" fill="white"/>
</clipPath>
</defs>
</svg>
