<svg width="6" height="24" viewBox="0 0 6 24" fill="none" xmlns="http://www.w3.org/2000/svg">
<g clip-path="url(#clip0_326_1336)">
<path d="M2 12C2 12.2652 2.10536 12.5196 2.29289 12.7071C2.48043 12.8946 2.73478 13 3 13C3.26522 13 3.51957 12.8946 3.70711 12.7071C3.89464 12.5196 4 12.2652 4 12C4 11.7348 3.89464 11.4804 3.70711 11.2929C3.51957 11.1054 3.26522 11 3 11C2.73478 11 2.48043 11.1054 2.29289 11.2929C2.10536 11.4804 2 11.7348 2 12Z" stroke="#78716C" stroke-width="1.5" stroke-linecap="round" stroke-linejoin="round"/>
<path d="M2 19C2 19.2652 2.10536 19.5196 2.29289 19.7071C2.48043 19.8946 2.73478 20 3 20C3.26522 20 3.51957 19.8946 3.70711 19.7071C3.89464 19.5196 4 19.2652 4 19C4 18.7348 3.89464 18.4804 3.70711 18.2929C3.51957 18.1054 3.26522 18 3 18C2.73478 18 2.48043 18.1054 2.29289 18.2929C2.10536 18.4804 2 18.7348 2 19Z" stroke="#78716C" stroke-width="1.5" stroke-linecap="round" stroke-linejoin="round"/>
<path d="M2 5C2 5.26522 2.10536 5.51957 2.29289 5.70711C2.48043 5.89464 2.73478 6 3 6C3.26522 6 3.51957 5.89464 3.70711 5.70711C3.89464 5.51957 4 5.26522 4 5C4 4.73478 3.89464 4.48043 3.70711 4.29289C3.51957 4.10536 3.26522 4 3 4C2.73478 4 2.48043 4.10536 2.29289 4.29289C2.10536 4.48043 2 4.73478 2 5Z" stroke="#78716C" stroke-width="1.5" stroke-linecap="round" stroke-linejoin="round"/>
</g>
<defs>
<clipPath id="clip0_326_1336">
<rect width="6" height="24" fill="white"/>
</clipPath>
</defs>
</svg>
