<svg width="108" height="48" viewBox="0 0 108 48" fill="none" xmlns="http://www.w3.org/2000/svg">
<rect x="9" width="99" height="48" rx="8" fill="#3B82F6"/>
<path d="M0.500001 25.366C-0.166666 24.9811 -0.166667 24.0189 0.499999 23.634L11.75 17.1388C12.4167 16.7539 13.25 17.235 13.25 18.0048L13.25 30.9952C13.25 31.765 12.4167 32.2461 11.75 31.8612L0.500001 25.366Z" fill="#3B82F6"/>
<path d="M27.5714 31.816C27.1874 31.816 26.8567 31.7947 26.5794 31.752C26.3127 31.72 26.046 31.6507 25.7794 31.544V29.752C25.9607 29.816 26.126 29.8587 26.2754 29.88C26.4354 29.9013 26.5954 29.912 26.7554 29.912C27.1927 29.912 27.518 29.832 27.7314 29.672C27.9554 29.5227 28.1794 29.2507 28.4034 28.856L24.9954 21.416H27.6994L29.6994 26.232L31.6674 21.416H34.3554L31.4594 28.376C31.1714 29.0693 30.8514 29.672 30.4994 30.184C30.1474 30.7067 29.7367 31.1067 29.2674 31.384C28.798 31.672 28.2327 31.816 27.5714 31.816ZM38.5319 29.16C37.2092 29.16 36.1479 28.8347 35.3479 28.184C34.5479 27.5227 34.1479 26.5307 34.1479 25.208C34.1479 24.0027 34.4785 23.0427 35.1399 22.328C35.8012 21.6133 36.7932 21.256 38.1159 21.256C39.3212 21.256 40.2545 21.5653 40.9159 22.184C41.5772 22.8027 41.9079 23.6347 41.9079 24.68V26.04H36.5319C36.6492 26.5413 36.9212 26.8933 37.3479 27.096C37.7852 27.288 38.3772 27.384 39.1239 27.384C39.5399 27.384 39.9612 27.3467 40.3879 27.272C40.8252 27.1973 41.1879 27.1013 41.4759 26.984V28.664C41.1132 28.8347 40.6812 28.9573 40.1799 29.032C39.6785 29.1173 39.1292 29.16 38.5319 29.16ZM36.5319 24.552H39.6679V24.216C39.6679 23.8427 39.5559 23.5493 39.3319 23.336C39.1079 23.112 38.7292 23 38.1959 23C37.5772 23 37.1452 23.128 36.8999 23.384C36.6545 23.6293 36.5319 24.0187 36.5319 24.552ZM45.4259 29.16C44.9459 29.16 44.4979 29.0747 44.0819 28.904C43.6765 28.7333 43.3512 28.472 43.1059 28.12C42.8605 27.7573 42.7379 27.3093 42.7379 26.776C42.7379 25.9973 42.9992 25.3893 43.5219 24.952C44.0552 24.504 44.8499 24.28 45.9059 24.28H48.0179V24.104C48.0179 23.72 47.8899 23.448 47.6339 23.288C47.3779 23.1173 46.8979 23.032 46.1939 23.032C45.3299 23.032 44.4819 23.1653 43.6499 23.432V21.768C44.0232 21.6187 44.4765 21.496 45.0099 21.4C45.5539 21.304 46.1245 21.256 46.7219 21.256C47.8952 21.256 48.8125 21.496 49.4739 21.976C50.1459 22.456 50.4819 23.2187 50.4819 24.264V29H48.2259L48.0979 28.36C47.8205 28.616 47.4632 28.8133 47.0259 28.952C46.5992 29.0907 46.0659 29.16 45.4259 29.16ZM46.2419 27.576C46.6472 27.576 46.9992 27.5067 47.2979 27.368C47.5965 27.2293 47.8365 27.0533 48.0179 26.84V25.768H46.1939C45.4365 25.768 45.0579 26.072 45.0579 26.68C45.0579 26.9573 45.1539 27.176 45.3459 27.336C45.5379 27.496 45.8365 27.576 46.2419 27.576ZM51.8666 29V21.416H54.3146L54.3946 22.12C54.7253 21.9173 55.136 21.736 55.6266 21.576C56.1173 21.4053 56.608 21.2987 57.0986 21.256V23.192C56.8213 23.224 56.512 23.2773 56.1706 23.352C55.84 23.416 55.52 23.496 55.2106 23.592C54.912 23.688 54.656 23.7893 54.4426 23.896V29H51.8666ZM60.6476 29.16C60.0396 29.16 59.4636 29.1173 58.9196 29.032C58.3756 28.9467 57.9436 28.84 57.6236 28.712V26.744C57.997 26.904 58.429 27.0267 58.9196 27.112C59.4103 27.1973 59.8476 27.24 60.2316 27.24C60.6903 27.24 61.021 27.2187 61.2236 27.176C61.437 27.1333 61.5436 27.016 61.5436 26.824C61.5436 26.6107 61.373 26.4507 61.0316 26.344C60.6903 26.2373 60.221 26.0827 59.6236 25.88C58.9303 25.6347 58.4023 25.352 58.0396 25.032C57.6876 24.7013 57.5116 24.216 57.5116 23.576C57.5116 22.8293 57.789 22.2587 58.3436 21.864C58.909 21.4587 59.805 21.256 61.0316 21.256C61.5116 21.256 61.9863 21.2933 62.4556 21.368C62.925 21.4427 63.309 21.528 63.6076 21.624V23.56C63.309 23.4213 62.9676 23.32 62.5836 23.256C62.1996 23.192 61.853 23.16 61.5436 23.16C61.149 23.16 60.813 23.1867 60.5356 23.24C60.269 23.2827 60.1356 23.3947 60.1356 23.576C60.1356 23.7787 60.285 23.9227 60.5836 24.008C60.8823 24.0827 61.3143 24.2107 61.8796 24.392C62.477 24.5733 62.941 24.7707 63.2716 24.984C63.6023 25.1867 63.837 25.432 63.9756 25.72C64.1143 26.008 64.1836 26.3707 64.1836 26.808C64.1836 27.5653 63.885 28.1467 63.2876 28.552C62.6903 28.9573 61.8103 29.16 60.6476 29.16ZM72.5574 29.16C71.096 29.16 70.0187 28.824 69.3254 28.152C68.632 27.4693 68.2854 26.488 68.2854 25.208C68.2854 23.9387 68.632 22.9627 69.3254 22.28C70.0294 21.5973 71.1067 21.256 72.5574 21.256C74.0187 21.256 75.096 21.5973 75.7894 22.28C76.4934 22.9627 76.8454 23.9387 76.8454 25.208C76.8454 26.488 76.4987 27.4693 75.8054 28.152C75.112 28.824 74.0294 29.16 72.5574 29.16ZM72.5574 27.144C73.1547 27.144 73.5814 26.9947 73.8374 26.696C74.0934 26.3973 74.2214 25.9013 74.2214 25.208C74.2214 24.5147 74.0934 24.0187 73.8374 23.72C73.5814 23.4213 73.1547 23.272 72.5574 23.272C71.9707 23.272 71.5494 23.4213 71.2934 23.72C71.0374 24.0187 70.9094 24.5147 70.9094 25.208C70.9094 25.9013 71.0374 26.3973 71.2934 26.696C71.5494 26.9947 71.9707 27.144 72.5574 27.144ZM80.3283 29.16C79.4963 29.16 78.8989 28.9787 78.5363 28.616C78.1736 28.2533 77.9923 27.672 77.9923 26.872V18.216H80.5683V26.616C80.5683 26.8613 80.6163 27.032 80.7123 27.128C80.8189 27.2133 80.9736 27.256 81.1763 27.256C81.4643 27.256 81.7203 27.2187 81.9443 27.144V28.888C81.6989 28.984 81.4536 29.0533 81.2083 29.096C80.9736 29.1387 80.6803 29.16 80.3283 29.16ZM85.9381 29.16C85.2021 29.16 84.5728 29.0427 84.0501 28.808C83.5275 28.5733 83.1275 28.1893 82.8501 27.656C82.5728 27.112 82.4341 26.3867 82.4341 25.48C82.4341 24.5627 82.5941 23.7947 82.9141 23.176C83.2341 22.5467 83.6715 22.072 84.2261 21.752C84.7915 21.4213 85.4368 21.256 86.1621 21.256C86.5568 21.256 86.9088 21.2987 87.2181 21.384C87.5381 21.4693 87.8368 21.5973 88.1141 21.768V18.216H90.6901V29H88.4661L88.3221 28.36C88.0128 28.6267 87.6661 28.8293 87.2821 28.968C86.8981 29.096 86.4501 29.16 85.9381 29.16ZM86.6741 27.288C87.2395 27.288 87.7195 27.096 88.1141 26.712V23.64C87.7515 23.3093 87.2875 23.144 86.7221 23.144C86.1781 23.144 85.7621 23.352 85.4741 23.768C85.1968 24.1733 85.0581 24.7493 85.0581 25.496C85.0581 26.2213 85.1915 26.7013 85.4581 26.936C85.7355 27.1707 86.1408 27.288 86.6741 27.288Z" fill="white"/>
</svg>
